<?xml version="1.0" encoding="utf-8"?>
<!-- Generator: Adobe Illustrator 25.4.1, SVG Export Plug-In . SVG Version: 6.00 Build 0)  -->
<svg version="1.1" id="Layer_1" xmlns="http://www.w3.org/2000/svg" xmlns:xlink="http://www.w3.org/1999/xlink" x="0px" y="0px"
	 viewBox="0 0 144 21.8" style="enable-background:new 0 0 144 21.8;" xml:space="preserve">
<style type="text/css">
	.st0{fill:#474747;}
	.st1{fill:#3474E0;}
</style>
<path class="st0" d="M95.9,4.4c0.2,0,0.4,0.1,0.6,0.3c0.2,0.2,0.3,0.4,0.3,0.6c0,0.3-0.1,0.5-0.3,0.6c-0.2,0.2-0.4,0.2-0.6,0.2h-4.1
	V17c0,0.3-0.1,0.5-0.3,0.7c-0.2,0.2-0.4,0.3-0.6,0.3c-0.3,0-0.5-0.1-0.7-0.3c-0.2-0.2-0.3-0.4-0.3-0.7V6.2h-4.2
	c-0.2,0-0.4-0.1-0.6-0.2c-0.2-0.2-0.3-0.4-0.3-0.6s0.1-0.4,0.3-0.6c0.2-0.2,0.4-0.3,0.6-0.3L95.9,4.4L95.9,4.4z M106.7,18.2
	c-1.1,0-2.2-0.3-3.1-0.8c-0.9-0.6-1.7-1.3-2.3-2.3c-0.6-0.9-0.8-2-0.8-3.1V5.3c0-0.3,0.1-0.5,0.3-0.6c0.2-0.2,0.4-0.3,0.7-0.3
	c0.3,0,0.5,0.1,0.6,0.3c0.2,0.2,0.3,0.4,0.3,0.6V12c0,0.8,0.2,1.5,0.6,2.2s0.9,1.2,1.6,1.6s1.4,0.6,2.2,0.6s1.5-0.2,2.2-0.6
	s1.2-0.9,1.6-1.6c0.4-0.7,0.6-1.4,0.6-2.2V5.3c0-0.3,0.1-0.5,0.3-0.6c0.2-0.2,0.4-0.3,0.7-0.3c0.3,0,0.5,0.1,0.6,0.3
	c0.2,0.2,0.3,0.4,0.3,0.6V12c0,1.1-0.3,2.2-0.8,3.1c-0.6,0.9-1.3,1.7-2.3,2.3C108.9,17.9,107.9,18.2,106.7,18.2z M129,16.7
	c0.1,0.1,0.1,0.2,0.1,0.4c0,0.2-0.1,0.4-0.2,0.5c-0.1,0.1-0.2,0.3-0.4,0.3c-0.1,0.1-0.2,0.1-0.4,0.1s-0.4,0-0.5-0.1
	s-0.3-0.2-0.3-0.4l-1.2-2.8h-6.4l-1.2,2.8c-0.1,0.2-0.2,0.3-0.3,0.4c-0.1,0.1-0.3,0.1-0.5,0.1c-0.3,0-0.5-0.1-0.7-0.3
	c-0.2-0.2-0.3-0.4-0.3-0.7c0-0.1,0-0.3,0.1-0.4l5.3-11.9c0.1-0.2,0.2-0.3,0.3-0.4c0.2-0.1,0.3-0.1,0.5-0.1s0.4,0,0.5,0.1
	c0.2,0.1,0.3,0.2,0.3,0.4L129,16.7z M125.3,12.9l-2.4-5.5l-2.4,5.5H125.3z M142.3,16.2c0.2,0,0.4,0.1,0.6,0.3
	c0.2,0.2,0.3,0.4,0.3,0.6s-0.1,0.4-0.3,0.6s-0.4,0.3-0.6,0.3h-8.5c-0.3,0-0.5-0.1-0.7-0.3c-0.2-0.2-0.3-0.4-0.3-0.7V5.3
	c0-0.3,0.1-0.5,0.3-0.6c0.2-0.2,0.4-0.3,0.7-0.3s0.5,0.1,0.6,0.3c0.2,0.2,0.3,0.4,0.3,0.6v10.9H142.3z"/>
<path class="st0" d="M8.6,18.2c-1.3,0-2.4-0.3-3.5-0.9s-1.9-1.5-2.5-2.5c-0.6-1.1-0.9-2.3-0.9-3.5C1.7,10,2,8.9,2.6,7.8
	c0.6-1.2,1.4-2,2.5-2.7c1.1-0.6,2.2-0.9,3.5-0.9c1,0,1.9,0.2,2.8,0.6c0.9,0.4,1.6,1,2.3,1.7C13.9,6.7,14,6.9,14,7.1
	c0,0.3-0.1,0.5-0.3,0.6C13.5,7.9,13.3,8,13.1,8c-0.3,0-0.5-0.1-0.7-0.3c-0.5-0.6-1.1-1-1.7-1.3C10,6.1,9.3,6,8.6,6
	C7.7,6,6.8,6.2,6,6.7C5.2,7.1,4.6,7.8,4.1,8.6s-0.7,1.7-0.7,2.6s0.2,1.8,0.7,2.6s1.1,1.4,1.9,1.9s1.6,0.7,2.6,0.7
	c0.7,0,1.4-0.1,2.1-0.4c0.7-0.3,1.2-0.7,1.7-1.3c0.2-0.2,0.4-0.3,0.7-0.3s0.5,0.1,0.6,0.3c0.2,0.2,0.3,0.4,0.3,0.6
	c0,0.2-0.1,0.4-0.3,0.6c-0.7,0.7-1.4,1.3-2.3,1.7S9.6,18.2,8.6,18.2z M24.8,18.2c-1.3,0-2.4-0.3-3.5-0.9s-1.9-1.5-2.6-2.5
	c-0.6-1.1-0.9-2.3-0.9-3.5c0-1.3,0.3-2.4,0.9-3.5s1.5-1.9,2.6-2.6s2.3-0.9,3.5-0.9c1.3,0,2.4,0.3,3.5,0.9s1.9,1.5,2.6,2.6
	c0.6,1.1,1,2.2,1,3.5s-0.3,2.4-1,3.5c-0.6,1.1-1.5,1.9-2.6,2.5S26,18.2,24.8,18.2z M24.8,16.4c0.9,0,1.8-0.2,2.6-0.7
	c0.8-0.5,1.4-1.1,1.9-1.9c0.5-0.8,0.7-1.7,0.7-2.6s-0.2-1.8-0.7-2.6s-1.1-1.4-1.9-1.9S25.7,6,24.8,6c-0.9,0-1.8,0.2-2.6,0.7
	c-0.8,0.5-1.4,1.1-1.9,1.9s-0.7,1.7-0.7,2.6s0.2,1.8,0.7,2.6s1.1,1.4,1.9,1.9C22.9,16.2,23.8,16.4,24.8,16.4z M47.1,4.4
	c0.3,0,0.5,0.1,0.6,0.3C47.9,4.9,48,5.1,48,5.3v11.8c0,0.3-0.1,0.5-0.3,0.7s-0.4,0.3-0.6,0.3c-0.2,0-0.4-0.1-0.6-0.2l0,0l0,0
	l-0.2-0.2l-8.6-10v9.4c0,0.3-0.1,0.5-0.3,0.7s-0.4,0.3-0.6,0.3c-0.3,0-0.5-0.1-0.7-0.3c-0.2-0.2-0.3-0.4-0.3-0.7V5.3
	c0-0.3,0.1-0.5,0.3-0.6c0.2-0.2,0.4-0.3,0.7-0.3c0.2,0,0.4,0.1,0.6,0.2l0,0l8.7,10.1V5.3c0-0.3,0.1-0.5,0.3-0.6
	C46.6,4.5,46.9,4.4,47.1,4.4z M62.8,4.4c0.2,0,0.4,0.1,0.6,0.3c0.2,0.2,0.3,0.4,0.3,0.6c0,0.3-0.1,0.5-0.3,0.6
	c-0.2,0.2-0.4,0.2-0.6,0.2h-4.1V17c0,0.3-0.1,0.5-0.3,0.7C58.2,17.9,58,18,57.7,18s-0.5-0.1-0.7-0.3c-0.2-0.2-0.3-0.4-0.3-0.7V6.2
	h-4.2c-0.2,0-0.4-0.1-0.6-0.2c-0.2-0.2-0.3-0.4-0.3-0.6s0.1-0.4,0.3-0.6s0.4-0.3,0.6-0.3L62.8,4.4L62.8,4.4z"/>
<path class="st1" d="M81.6,15.6l-5.2-5.8L81.6,4c0.5-0.6,0.5-1.5-0.1-2.1C80.9,1.4,80,1.4,79.4,2l-4.9,5.5L69.6,2
	c-0.6-0.5-1.5-0.5-2.1,0s-0.7,1.5-0.1,2.1l5.2,5.8l-5.2,5.8c-0.6,0.6-0.5,1.5,0.1,2.1s1.5,0.5,2.1-0.1l4.9-5.5l4.9,5.5
	c0.6,0.6,1.5,0.6,2.1,0.1C82.1,17.2,82.1,16.2,81.6,15.6z"/>
<g>
	<path class="st0" d="M140.1,1.7V1.4h1.5v0.3h-0.6v1.5h-0.4V1.7H140.1z M142.5,1.4l0.5,1.3l0.5-1.3h0.5v1.8h-0.3V1.7l-0.5,1.5h-0.3
		l-0.5-1.5v1.5H142V1.4H142.5z"/>
</g>
</svg>
