<svg width="120" height="66" viewBox="0 0 120 66" fill="none" xmlns="http://www.w3.org/2000/svg">
<rect width="120" height="66" fill="#D9D9D9"/>
<path d="M59.3673 27.1896L62.6075 24.6432C62.6292 24.626 62.6467 24.6042 62.6587 24.5793C62.6707 24.5544 62.677 24.5271 62.677 24.4994C62.677 24.4718 62.6707 24.4445 62.6587 24.4196C62.6467 24.3947 62.6292 24.3728 62.6075 24.3556L59.3673 21.8076C59.247 21.7134 59.0699 21.7979 59.0699 21.9506V27.045C59.0699 27.1977 59.247 27.2839 59.3673 27.1896Z" fill="#BFBFBF"/>
<path d="M66.48 18H54.52C54.2324 18 54 18.2324 54 18.52V30.48C54 30.7676 54.2324 31 54.52 31H66.48C66.7676 31 67 30.7676 67 30.48V18.52C67 18.2324 66.7676 18 66.48 18ZM65.83 29.83H55.17V19.17H65.83V29.83Z" fill="#BFBFBF"/>
<path d="M25.3319 40.4545L27.275 45.9645H27.3517L29.2949 40.4545H30.1259L27.7225 47H26.9043L24.5009 40.4545H25.3319ZM30.9532 47V42.0909H31.7074V47H30.9532ZM31.3367 41.2727C31.1897 41.2727 31.0629 41.2227 30.9564 41.1225C30.8519 41.0224 30.7997 40.902 30.7997 40.7614C30.7997 40.6207 30.8519 40.5004 30.9564 40.4002C31.0629 40.3001 31.1897 40.25 31.3367 40.25C31.4837 40.25 31.6094 40.3001 31.7138 40.4002C31.8203 40.5004 31.8736 40.6207 31.8736 40.7614C31.8736 40.902 31.8203 41.0224 31.7138 41.1225C31.6094 41.2227 31.4837 41.2727 31.3367 41.2727ZM34.8526 47.1023C34.4435 47.1023 34.0823 46.9989 33.7691 46.7923C33.4559 46.5835 33.2109 46.2894 33.0341 45.9102C32.8572 45.5288 32.7688 45.0781 32.7688 44.5582C32.7688 44.0426 32.8572 43.5952 33.0341 43.2159C33.2109 42.8366 33.457 42.5437 33.7723 42.337C34.0877 42.1303 34.452 42.027 34.8654 42.027C35.185 42.027 35.4375 42.0803 35.6228 42.1868C35.8103 42.2912 35.9531 42.4105 36.0511 42.5447C36.1512 42.6768 36.229 42.7855 36.2844 42.8707H36.3483V40.4545H37.1026V47H36.3739V46.2457H36.2844C36.229 46.3352 36.1502 46.4482 36.0479 46.5845C35.9456 46.7187 35.7997 46.8391 35.61 46.9457C35.4204 47.0501 35.1679 47.1023 34.8526 47.1023ZM34.9549 46.4247C35.2574 46.4247 35.5131 46.3459 35.7219 46.1882C35.9307 46.0284 36.0895 45.8079 36.1981 45.5266C36.3068 45.2433 36.3611 44.9162 36.3611 44.5455C36.3611 44.179 36.3078 43.8583 36.2013 43.5835C36.0948 43.3065 35.9371 43.0913 35.7283 42.9379C35.5195 42.7823 35.2617 42.7045 34.9549 42.7045C34.6353 42.7045 34.3689 42.7866 34.1559 42.9506C33.9449 43.1126 33.7862 43.3331 33.6796 43.6122C33.5752 43.8892 33.523 44.2003 33.523 44.5455C33.523 44.8949 33.5763 45.2124 33.6828 45.4979C33.7915 45.7812 33.9513 46.0071 34.1622 46.1754C34.3753 46.3416 34.6395 46.4247 34.9549 46.4247ZM40.557 47.1023C40.084 47.1023 39.6759 46.9979 39.3329 46.7891C38.992 46.5781 38.7289 46.2841 38.5435 45.907C38.3602 45.5277 38.2686 45.0866 38.2686 44.5838C38.2686 44.081 38.3602 43.6378 38.5435 43.2543C38.7289 42.8686 38.9867 42.5682 39.3169 42.353C39.6493 42.1357 40.0371 42.027 40.4803 42.027C40.736 42.027 40.9884 42.0696 41.2377 42.1548C41.487 42.2401 41.7139 42.3786 41.9185 42.5703C42.123 42.7599 42.286 43.0114 42.4075 43.3246C42.5289 43.6378 42.5896 44.0234 42.5896 44.4815V44.8011H38.8056V44.1491H41.8226C41.8226 43.8722 41.7672 43.625 41.6564 43.4077C41.5477 43.1903 41.3922 43.0188 41.1898 42.8931C40.9895 42.7674 40.753 42.7045 40.4803 42.7045C40.1798 42.7045 39.9199 42.7791 39.7004 42.9283C39.4831 43.0753 39.3159 43.267 39.1987 43.5036C39.0815 43.7401 39.0229 43.9936 39.0229 44.2642V44.6989C39.0229 45.0696 39.0868 45.3839 39.2146 45.6417C39.3446 45.8974 39.5247 46.0923 39.7548 46.2266C39.9849 46.3587 40.2523 46.4247 40.557 46.4247C40.7551 46.4247 40.9341 46.397 41.0939 46.3416C41.2558 46.2841 41.3954 46.1989 41.5126 46.0859C41.6298 45.9709 41.7203 45.8281 41.7843 45.6577L42.5129 45.8622C42.4362 46.1094 42.3073 46.3267 42.1262 46.5142C41.9451 46.6996 41.7214 46.8445 41.4551 46.9489C41.1887 47.0511 40.8894 47.1023 40.557 47.1023ZM45.6413 47.1023C45.1982 47.1023 44.8093 46.9968 44.4748 46.7859C44.1424 46.5749 43.8825 46.2798 43.695 45.9006C43.5096 45.5213 43.4169 45.0781 43.4169 44.571C43.4169 44.0597 43.5096 43.6133 43.695 43.2319C43.8825 42.8505 44.1424 42.5543 44.4748 42.3434C44.8093 42.1325 45.1982 42.027 45.6413 42.027C46.0845 42.027 46.4723 42.1325 46.8047 42.3434C47.1392 42.5543 47.3992 42.8505 47.5845 43.2319C47.772 43.6133 47.8658 44.0597 47.8658 44.571C47.8658 45.0781 47.772 45.5213 47.5845 45.9006C47.3992 46.2798 47.1392 46.5749 46.8047 46.7859C46.4723 46.9968 46.0845 47.1023 45.6413 47.1023ZM45.6413 46.4247C45.978 46.4247 46.255 46.3384 46.4723 46.1658C46.6896 45.9933 46.8505 45.7663 46.9549 45.4851C47.0593 45.2038 47.1115 44.8991 47.1115 44.571C47.1115 44.2429 47.0593 43.9371 46.9549 43.6538C46.8505 43.3704 46.6896 43.1413 46.4723 42.9666C46.255 42.7919 45.978 42.7045 45.6413 42.7045C45.3047 42.7045 45.0277 42.7919 44.8104 42.9666C44.593 43.1413 44.4322 43.3704 44.3278 43.6538C44.2234 43.9371 44.1712 44.2429 44.1712 44.571C44.1712 44.8991 44.2234 45.2038 44.3278 45.4851C44.4322 45.7663 44.593 45.9933 44.8104 46.1658C45.0277 46.3384 45.3047 46.4247 45.6413 46.4247ZM51.4707 47V40.4545H55.4209V41.1577H52.2633V43.3693H55.2164V44.0724H52.2633V46.2969H55.4721V47H51.4707ZM57.4116 44.0469V47H56.6573V42.0909H57.386V42.858H57.4499C57.565 42.6087 57.7397 42.4084 57.9741 42.2571C58.2084 42.1037 58.511 42.027 58.8817 42.027C59.2141 42.027 59.505 42.0952 59.7542 42.2315C60.0035 42.3658 60.1974 42.5703 60.3359 42.8452C60.4744 43.1179 60.5437 43.4631 60.5437 43.8807V47H59.7894V43.9318C59.7894 43.5462 59.6893 43.2457 59.489 43.0305C59.2887 42.8132 59.0138 42.7045 58.6644 42.7045C58.4236 42.7045 58.2084 42.7567 58.0188 42.8612C57.8313 42.9656 57.6832 43.1179 57.5746 43.3182C57.4659 43.5185 57.4116 43.7614 57.4116 44.0469ZM63.8263 47.1023C63.366 47.1023 62.9697 46.9936 62.6373 46.7763C62.305 46.5589 62.0493 46.2596 61.8703 45.8782C61.6913 45.4968 61.6018 45.0611 61.6018 44.571C61.6018 44.0724 61.6934 43.6325 61.8767 43.2511C62.0621 42.8675 62.3199 42.5682 62.6501 42.353C62.9825 42.1357 63.3703 42.027 63.8135 42.027C64.1586 42.027 64.4697 42.0909 64.7467 42.2188C65.0237 42.3466 65.2506 42.5256 65.4275 42.7557C65.6043 42.9858 65.714 43.2543 65.7567 43.5611H65.0024C64.9449 43.3374 64.817 43.1392 64.6189 42.9666C64.4229 42.7919 64.1586 42.7045 63.8263 42.7045C63.5322 42.7045 63.2744 42.7812 63.0528 42.9347C62.8334 43.0859 62.6618 43.3001 62.5383 43.5771C62.4168 43.8519 62.3561 44.1747 62.3561 44.5455C62.3561 44.9247 62.4157 45.255 62.5351 45.5362C62.6565 45.8175 62.827 46.0359 63.0464 46.1914C63.268 46.3469 63.528 46.4247 63.8263 46.4247C64.0223 46.4247 64.2002 46.3906 64.36 46.3224C64.5198 46.2543 64.6551 46.1562 64.7659 46.0284C64.8767 45.9006 64.9555 45.7472 65.0024 45.5682H65.7567C65.714 45.858 65.6086 46.119 65.4403 46.3512C65.2741 46.5813 65.0535 46.7646 64.7787 46.9009C64.5059 47.0352 64.1885 47.1023 63.8263 47.1023ZM68.7636 47.1023C68.3204 47.1023 67.9316 46.9968 67.5971 46.7859C67.2647 46.5749 67.0047 46.2798 66.8172 45.9006C66.6319 45.5213 66.5392 45.0781 66.5392 44.571C66.5392 44.0597 66.6319 43.6133 66.8172 43.2319C67.0047 42.8505 67.2647 42.5543 67.5971 42.3434C67.9316 42.1325 68.3204 42.027 68.7636 42.027C69.2068 42.027 69.5946 42.1325 69.927 42.3434C70.2615 42.5543 70.5214 42.8505 70.7068 43.2319C70.8943 43.6133 70.988 44.0597 70.988 44.571C70.988 45.0781 70.8943 45.5213 70.7068 45.9006C70.5214 46.2798 70.2615 46.5749 69.927 46.7859C69.5946 46.9968 69.2068 47.1023 68.7636 47.1023ZM68.7636 46.4247C69.1003 46.4247 69.3772 46.3384 69.5946 46.1658C69.8119 45.9933 69.9728 45.7663 70.0772 45.4851C70.1816 45.2038 70.2338 44.8991 70.2338 44.571C70.2338 44.2429 70.1816 43.9371 70.0772 43.6538C69.9728 43.3704 69.8119 43.1413 69.5946 42.9666C69.3772 42.7919 69.1003 42.7045 68.7636 42.7045C68.427 42.7045 68.15 42.7919 67.9326 42.9666C67.7153 43.1413 67.5544 43.3704 67.45 43.6538C67.3456 43.9371 67.2934 44.2429 67.2934 44.571C67.2934 44.8991 67.3456 45.2038 67.45 45.4851C67.5544 45.7663 67.7153 45.9933 67.9326 46.1658C68.15 46.3384 68.427 46.4247 68.7636 46.4247ZM73.9031 47.1023C73.494 47.1023 73.1329 46.9989 72.8196 46.7923C72.5064 46.5835 72.2614 46.2894 72.0846 45.9102C71.9077 45.5288 71.8193 45.0781 71.8193 44.5582C71.8193 44.0426 71.9077 43.5952 72.0846 43.2159C72.2614 42.8366 72.5075 42.5437 72.8228 42.337C73.1382 42.1303 73.5025 42.027 73.9159 42.027C74.2355 42.027 74.488 42.0803 74.6733 42.1868C74.8608 42.2912 75.0036 42.4105 75.1016 42.5447C75.2017 42.6768 75.2795 42.7855 75.3349 42.8707H75.3988V40.4545H76.1531V47H75.4244V46.2457H75.3349C75.2795 46.3352 75.2007 46.4482 75.0984 46.5845C74.9961 46.7187 74.8502 46.8391 74.6606 46.9457C74.4709 47.0501 74.2184 47.1023 73.9031 47.1023ZM74.0054 46.4247C74.3079 46.4247 74.5636 46.3459 74.7724 46.1882C74.9812 46.0284 75.14 45.8079 75.2486 45.5266C75.3573 45.2433 75.4116 44.9162 75.4116 44.5455C75.4116 44.179 75.3584 43.8583 75.2518 43.5835C75.1453 43.3065 74.9876 43.0913 74.7788 42.9379C74.57 42.7823 74.3122 42.7045 74.0054 42.7045C73.6858 42.7045 73.4194 42.7866 73.2064 42.9506C72.9954 43.1126 72.8367 43.3331 72.7302 43.6122C72.6258 43.8892 72.5736 44.2003 72.5736 44.5455C72.5736 44.8949 72.6268 45.2124 72.7334 45.4979C72.842 45.7812 73.0018 46.0071 73.2128 46.1754C73.4258 46.3416 73.69 46.4247 74.0054 46.4247ZM77.5492 47V42.0909H78.3035V47H77.5492ZM77.9328 41.2727C77.7857 41.2727 77.659 41.2227 77.5524 41.1225C77.448 41.0224 77.3958 40.902 77.3958 40.7614C77.3958 40.6207 77.448 40.5004 77.5524 40.4002C77.659 40.3001 77.7857 40.25 77.9328 40.25C78.0798 40.25 78.2055 40.3001 78.3099 40.4002C78.4164 40.5004 78.4697 40.6207 78.4697 40.7614C78.4697 40.902 78.4164 41.0224 78.3099 41.1225C78.2055 41.2227 78.0798 41.2727 77.9328 41.2727ZM80.3493 44.0469V47H79.595V42.0909H80.3237V42.858H80.3876C80.5027 42.6087 80.6774 42.4084 80.9118 42.2571C81.1461 42.1037 81.4487 42.027 81.8194 42.027C82.1518 42.027 82.4426 42.0952 82.6919 42.2315C82.9412 42.3658 83.1351 42.5703 83.2736 42.8452C83.4121 43.1179 83.4814 43.4631 83.4814 43.8807V47H82.7271V43.9318C82.7271 43.5462 82.6269 43.2457 82.4267 43.0305C82.2264 42.8132 81.9515 42.7045 81.6021 42.7045C81.3613 42.7045 81.1461 42.7567 80.9565 42.8612C80.769 42.9656 80.6209 43.1179 80.5122 43.3182C80.4036 43.5185 80.3493 43.7614 80.3493 44.0469ZM86.7512 48.9432C86.3868 48.9432 86.0736 48.8963 85.8115 48.8026C85.5495 48.7109 85.3311 48.5895 85.1564 48.4382C84.9838 48.2891 84.8463 48.1293 84.7441 47.9588L85.3449 47.5369C85.4131 47.6264 85.4994 47.7287 85.6038 47.8438C85.7082 47.9609 85.851 48.0621 86.0321 48.1474C86.2153 48.2347 86.455 48.2784 86.7512 48.2784C87.1475 48.2784 87.4745 48.1825 87.7324 47.9908C87.9902 47.799 88.1191 47.4986 88.1191 47.0895V46.0923H88.0552C87.9998 46.1818 87.9209 46.2926 87.8186 46.4247C87.7185 46.5547 87.5736 46.6708 87.384 46.7731C87.1965 46.8732 86.9429 46.9233 86.6233 46.9233C86.227 46.9233 85.8712 46.8295 85.5559 46.642C85.2427 46.4545 84.9944 46.1818 84.8112 45.8239C84.6301 45.4659 84.5395 45.0312 84.5395 44.5199C84.5395 44.017 84.628 43.5792 84.8048 43.2063C84.9816 42.8313 85.2277 42.5415 85.5431 42.337C85.8584 42.1303 86.2228 42.027 86.6361 42.027C86.9557 42.027 87.2093 42.0803 87.3968 42.1868C87.5864 42.2912 87.7313 42.4105 87.8314 42.5447C87.9337 42.6768 88.0125 42.7855 88.0679 42.8707H88.1446V42.0909H88.8733V47.1406C88.8733 47.5625 88.7775 47.9055 88.5857 48.1697C88.3961 48.4361 88.1404 48.631 87.8186 48.7546C87.499 48.8803 87.1432 48.9432 86.7512 48.9432ZM86.7256 46.2457C87.0282 46.2457 87.2838 46.1765 87.4927 46.038C87.7015 45.8995 87.8602 45.7003 87.9689 45.4403C88.0775 45.1804 88.1319 44.8693 88.1319 44.5071C88.1319 44.1534 88.0786 43.8413 87.9721 43.5707C87.8655 43.3001 87.7079 43.0881 87.499 42.9347C87.2902 42.7812 87.0324 42.7045 86.7256 42.7045C86.406 42.7045 86.1397 42.7855 85.9266 42.9474C85.7157 43.1094 85.5569 43.3267 85.4504 43.5994C85.346 43.8722 85.2938 44.1747 85.2938 44.5071C85.2938 44.848 85.3471 45.1495 85.4536 45.4116C85.5623 45.6715 85.7221 45.8761 85.933 46.0252C86.1461 46.1722 86.4103 46.2457 86.7256 46.2457ZM90.7137 47.0511C90.5561 47.0511 90.4208 46.9947 90.3078 46.8817C90.1949 46.7688 90.1384 46.6335 90.1384 46.4759C90.1384 46.3182 90.1949 46.1829 90.3078 46.07C90.4208 45.957 90.5561 45.9006 90.7137 45.9006C90.8714 45.9006 91.0067 45.957 91.1196 46.07C91.2325 46.1829 91.289 46.3182 91.289 46.4759C91.289 46.5803 91.2624 46.6761 91.2091 46.7635C91.158 46.8509 91.0887 46.9212 91.0014 46.9744C90.9161 47.0256 90.8203 47.0511 90.7137 47.0511ZM93.1022 47.0511C92.9446 47.0511 92.8093 46.9947 92.6964 46.8817C92.5834 46.7688 92.527 46.6335 92.527 46.4759C92.527 46.3182 92.5834 46.1829 92.6964 46.07C92.8093 45.957 92.9446 45.9006 93.1022 45.9006C93.2599 45.9006 93.3952 45.957 93.5081 46.07C93.6211 46.1829 93.6775 46.3182 93.6775 46.4759C93.6775 46.5803 93.6509 46.6761 93.5976 46.7635C93.5465 46.8509 93.4772 46.9212 93.3899 46.9744C93.3047 47.0256 93.2088 47.0511 93.1022 47.0511ZM95.4908 47.0511C95.3331 47.0511 95.1978 46.9947 95.0849 46.8817C94.9719 46.7688 94.9155 46.6335 94.9155 46.4759C94.9155 46.3182 94.9719 46.1829 95.0849 46.07C95.1978 45.957 95.3331 45.9006 95.4908 45.9006C95.6484 45.9006 95.7837 45.957 95.8967 46.07C96.0096 46.1829 96.066 46.3182 96.066 46.4759C96.066 46.5803 96.0394 46.6761 95.9861 46.7635C95.935 46.8509 95.8658 46.9212 95.7784 46.9744C95.6932 47.0256 95.5973 47.0511 95.4908 47.0511Z" fill="#8C8C8C"/>
</svg>
