<svg width="48" height="70" viewBox="0 0 48 70" fill="none" xmlns="http://www.w3.org/2000/svg">
<g clip-path="url(#clip0_311_7)">
<rect width="48" height="70" fill="white"/>
<path d="M48 0H0V70H48V0Z" fill="#D9D9D9"/>
<path d="M22.2974 29.1896L25.5376 26.6432C25.5593 26.626 25.5768 26.6042 25.5888 26.5793C25.6008 26.5544 25.6071 26.5271 25.6071 26.4994C25.6071 26.4718 25.6008 26.4445 25.5888 26.4196C25.5768 26.3947 25.5593 26.3728 25.5376 26.3556L22.2974 23.8076C22.1771 23.7134 22 23.7979 22 23.9506V29.045C22 29.1977 22.1771 29.2839 22.2974 29.1896Z" fill="#BFBFBF"/>
<path d="M29.48 20H17.52C17.2324 20 17 20.2324 17 20.52V32.48C17 32.7676 17.2324 33 17.52 33H29.48C29.7676 33 30 32.7676 30 32.48V20.52C30 20.2324 29.7676 20 29.48 20ZM28.83 31.83H18.17V21.17H28.83V31.83Z" fill="#BFBFBF"/>
<path d="M6.40641 44.1176L7.35672 47.2868H7.39423L8.34458 44.1176H8.75099L7.57557 47.8823H7.17542L6 44.1176H6.40641ZM9.15559 47.8823V45.0588H9.52445V47.8823H9.15559ZM9.34315 44.5882C9.27126 44.5882 9.20925 44.5595 9.15716 44.5018C9.10605 44.4443 9.08052 44.375 9.08052 44.2941C9.08052 44.2132 9.10605 44.144 9.15716 44.0864C9.20925 44.0288 9.27126 44 9.34315 44C9.41504 44 9.47652 44.0288 9.52758 44.0864C9.57966 44.144 9.60573 44.2132 9.60573 44.2941C9.60573 44.375 9.57966 44.4443 9.52758 44.5018C9.47652 44.5595 9.41504 44.5882 9.34315 44.5882ZM11.0627 47.9412C10.8626 47.9412 10.6859 47.8817 10.5328 47.7629C10.3796 47.6428 10.2598 47.4736 10.1733 47.2555C10.0868 47.0362 10.0435 46.7769 10.0435 46.4779C10.0435 46.1814 10.0868 45.924 10.1733 45.7059C10.2598 45.4877 10.3801 45.3193 10.5343 45.2004C10.6886 45.0815 10.8667 45.0221 11.0689 45.0221C11.2252 45.0221 11.3487 45.0527 11.4393 45.114C11.531 45.174 11.6009 45.2426 11.6488 45.3198C11.6978 45.3958 11.7358 45.4583 11.7629 45.5073H11.7942V44.1176H12.1631V47.8823H11.8067V47.4485H11.7629C11.7358 47.5 11.6973 47.565 11.6472 47.6434C11.5972 47.7206 11.5259 47.7898 11.4331 47.8511C11.3403 47.9112 11.2169 47.9412 11.0627 47.9412ZM11.1127 47.5515C11.2606 47.5515 11.3857 47.5061 11.4878 47.4154C11.5899 47.3235 11.6676 47.1967 11.7207 47.0349C11.7739 46.872 11.8004 46.6838 11.8004 46.4706C11.8004 46.2598 11.7743 46.0754 11.7223 45.9173C11.6702 45.758 11.593 45.6342 11.4909 45.546C11.3888 45.4565 11.2627 45.4117 11.1127 45.4117C10.9564 45.4117 10.8261 45.459 10.7219 45.5533C10.6187 45.6465 10.5411 45.7733 10.489 45.9338C10.4379 46.0931 10.4124 46.2721 10.4124 46.4706C10.4124 46.6716 10.4385 46.8542 10.4905 47.0184C10.5437 47.1813 10.6219 47.3113 10.725 47.4081C10.8292 47.5037 10.9584 47.5515 11.1127 47.5515ZM13.8525 47.9412C13.6212 47.9412 13.4216 47.8811 13.2538 47.761C13.0871 47.6397 12.9584 47.4706 12.8677 47.2537C12.7781 47.0355 12.7333 46.7818 12.7333 46.4926C12.7333 46.2034 12.7781 45.9485 12.8677 45.728C12.9584 45.5061 13.0845 45.3333 13.246 45.2096C13.4086 45.0846 13.5982 45.0221 13.815 45.0221C13.94 45.0221 14.0635 45.0466 14.1854 45.0956C14.3073 45.1446 14.4183 45.2243 14.5183 45.3345C14.6184 45.4436 14.6981 45.5883 14.7575 45.7684C14.8169 45.9485 14.8466 46.1703 14.8466 46.4338V46.6176H12.9959V46.2426H14.4714C14.4714 46.0834 14.4443 45.9412 14.3902 45.8162C14.337 45.6911 14.2609 45.5925 14.162 45.5202C14.064 45.4479 13.9483 45.4117 13.815 45.4117C13.668 45.4117 13.5409 45.4546 13.4335 45.5405C13.3273 45.625 13.2455 45.7353 13.1882 45.8713C13.1309 46.0074 13.1022 46.1532 13.1022 46.3088V46.5588C13.1022 46.7721 13.1335 46.9528 13.196 47.1011C13.2595 47.2482 13.3476 47.3603 13.4602 47.4375C13.5727 47.5135 13.7035 47.5515 13.8525 47.5515C13.9494 47.5515 14.0369 47.5355 14.1151 47.5037C14.1942 47.4706 14.2625 47.4216 14.3198 47.3566C14.3771 47.2904 14.4214 47.2083 14.4527 47.1103L14.809 47.2279C14.7715 47.3701 14.7085 47.4951 14.6199 47.6029C14.5314 47.7096 14.4219 47.7929 14.2917 47.853C14.1614 47.9117 14.015 47.9412 13.8525 47.9412ZM16.339 47.9412C16.1223 47.9412 15.9321 47.8805 15.7685 47.7592C15.606 47.6378 15.4789 47.4681 15.3872 47.25C15.2965 47.0319 15.2512 46.7769 15.2512 46.4853C15.2512 46.1912 15.2965 45.9344 15.3872 45.7151C15.4789 45.4957 15.606 45.3253 15.7685 45.204C15.9321 45.0827 16.1223 45.0221 16.339 45.0221C16.5558 45.0221 16.7454 45.0827 16.908 45.204C17.0716 45.3253 17.1988 45.4957 17.2894 45.7151C17.3811 45.9344 17.427 46.1912 17.427 46.4853C17.427 46.7769 17.3811 47.0319 17.2894 47.25C17.1988 47.4681 17.0716 47.6378 16.908 47.7592C16.7454 47.8805 16.5558 47.9412 16.339 47.9412ZM16.339 47.5515C16.5037 47.5515 16.6392 47.5018 16.7454 47.4025C16.8517 47.3033 16.9304 47.1728 16.9815 47.011C17.0325 46.8492 17.0581 46.674 17.0581 46.4853C17.0581 46.2966 17.0325 46.1207 16.9815 45.9577C16.9304 45.7947 16.8517 45.663 16.7454 45.5625C16.6392 45.462 16.5037 45.4117 16.339 45.4117C16.1744 45.4117 16.0389 45.462 15.9327 45.5625C15.8263 45.663 15.7477 45.7947 15.6966 45.9577C15.6456 46.1207 15.6201 46.2966 15.6201 46.4853C15.6201 46.674 15.6456 46.8492 15.6966 47.011C15.7477 47.1728 15.8263 47.3033 15.9327 47.4025C16.0389 47.5018 16.1744 47.5515 16.339 47.5515ZM19.19 47.8823V44.1176H21.1219V44.5221H19.5776V45.7941H21.0219V46.1985H19.5776V47.4779H21.1469V47.8823H19.19ZM22.0955 46.1838V47.8823H21.7266V45.0588H22.083V45.5H22.1142C22.1705 45.3566 22.2559 45.2414 22.3706 45.1544C22.4852 45.0662 22.6332 45.0221 22.8145 45.0221C22.977 45.0221 23.1193 45.0613 23.2412 45.1397C23.3631 45.2169 23.4579 45.3345 23.5257 45.4927C23.5934 45.6495 23.6273 45.8481 23.6273 46.0882V47.8823H23.2584V46.1176C23.2584 45.8959 23.2094 45.723 23.1115 45.5992C23.0135 45.4743 22.8791 45.4117 22.7082 45.4117C22.5904 45.4117 22.4852 45.4418 22.3924 45.5019C22.3007 45.5619 22.2283 45.6495 22.1752 45.7647C22.122 45.8799 22.0955 46.0196 22.0955 46.1838ZM25.2327 47.9412C25.0076 47.9412 24.8138 47.8787 24.6512 47.7537C24.4887 47.6286 24.3636 47.4565 24.2761 47.2371C24.1885 47.0178 24.1448 46.7672 24.1448 46.4853C24.1448 46.1985 24.1896 45.9455 24.2792 45.7261C24.3699 45.5055 24.496 45.3333 24.6574 45.2096C24.82 45.0846 25.0097 45.0221 25.2264 45.0221C25.3952 45.0221 25.5473 45.0588 25.6828 45.1324C25.8183 45.2059 25.9293 45.3088 26.0158 45.4412C26.1022 45.5735 26.1559 45.728 26.1768 45.9044H25.8079C25.7798 45.7758 25.7172 45.6618 25.6203 45.5625C25.5245 45.462 25.3952 45.4117 25.2327 45.4117C25.0889 45.4117 24.9628 45.4559 24.8544 45.5441C24.7471 45.6311 24.6632 45.7543 24.6028 45.9136C24.5433 46.0717 24.5137 46.2573 24.5137 46.4706C24.5137 46.6887 24.5428 46.8787 24.6012 47.0404C24.6606 47.2022 24.744 47.3278 24.8513 47.4173C24.9596 47.5067 25.0868 47.5515 25.2327 47.5515C25.3285 47.5515 25.4155 47.5318 25.4937 47.4926C25.5719 47.4534 25.638 47.397 25.6922 47.3235C25.7464 47.25 25.7849 47.1618 25.8079 47.0588H26.1768C26.1559 47.2255 26.1043 47.3756 26.022 47.5092C25.9408 47.6415 25.8329 47.747 25.6985 47.8253C25.5651 47.9026 25.4098 47.9412 25.2327 47.9412ZM27.6473 47.9412C27.4306 47.9412 27.2404 47.8805 27.0769 47.7592C26.9143 47.6378 26.7871 47.4681 26.6954 47.25C26.6048 47.0319 26.5595 46.7769 26.5595 46.4853C26.5595 46.1912 26.6048 45.9344 26.6954 45.7151C26.7871 45.4957 26.9143 45.3253 27.0769 45.204C27.2404 45.0827 27.4306 45.0221 27.6473 45.0221C27.8641 45.0221 28.0538 45.0827 28.2163 45.204C28.3799 45.3253 28.507 45.4957 28.5977 45.7151C28.6894 45.9344 28.7352 46.1912 28.7352 46.4853C28.7352 46.7769 28.6894 47.0319 28.5977 47.25C28.507 47.4681 28.3799 47.6378 28.2163 47.7592C28.0538 47.8805 27.8641 47.9412 27.6473 47.9412ZM27.6473 47.5515C27.812 47.5515 27.9474 47.5018 28.0538 47.4025C28.16 47.3033 28.2387 47.1728 28.2898 47.011C28.3408 46.8492 28.3664 46.674 28.3664 46.4853C28.3664 46.2966 28.3408 46.1207 28.2898 45.9577C28.2387 45.7947 28.16 45.663 28.0538 45.5625C27.9474 45.462 27.812 45.4117 27.6473 45.4117C27.4827 45.4117 27.3473 45.462 27.2409 45.5625C27.1347 45.663 27.056 45.7947 27.0049 45.9577C26.9539 46.1207 26.9283 46.2966 26.9283 46.4853C26.9283 46.674 26.9539 46.8492 27.0049 47.011C27.056 47.1728 27.1347 47.3033 27.2409 47.4025C27.3473 47.5018 27.4827 47.5515 27.6473 47.5515ZM30.1609 47.9412C29.9608 47.9412 29.7842 47.8817 29.631 47.7629C29.4778 47.6428 29.358 47.4736 29.2715 47.2555C29.185 47.0362 29.1418 46.7769 29.1418 46.4779C29.1418 46.1814 29.185 45.924 29.2715 45.7059C29.358 45.4877 29.4784 45.3193 29.6326 45.2004C29.7868 45.0815 29.965 45.0221 30.1672 45.0221C30.3235 45.0221 30.447 45.0527 30.5376 45.114C30.6293 45.174 30.6991 45.2426 30.747 45.3198C30.796 45.3958 30.834 45.4583 30.8611 45.5073H30.8924V44.1176H31.2613V47.8823H30.9049V47.4485H30.8611C30.834 47.5 30.7955 47.565 30.7455 47.6434C30.6954 47.7206 30.6241 47.7898 30.5314 47.8511C30.4386 47.9112 30.3151 47.9412 30.1609 47.9412ZM30.2109 47.5515C30.3589 47.5515 30.4839 47.5061 30.586 47.4154C30.6882 47.3235 30.7658 47.1967 30.8189 47.0349C30.8721 46.872 30.8987 46.6838 30.8987 46.4706C30.8987 46.2598 30.8726 46.0754 30.8205 45.9173C30.7684 45.758 30.6913 45.6342 30.5892 45.546C30.4871 45.4565 30.361 45.4117 30.2109 45.4117C30.0546 45.4117 29.9243 45.459 29.8202 45.5533C29.717 45.6465 29.6394 45.7733 29.5873 45.9338C29.5362 46.0931 29.5107 46.2721 29.5107 46.4706C29.5107 46.6716 29.5367 46.8542 29.5888 47.0184C29.6419 47.1813 29.7201 47.3113 29.8233 47.4081C29.9275 47.5037 30.0567 47.5515 30.2109 47.5515ZM31.9441 47.8823V45.0588H32.313V47.8823H31.9441ZM32.1317 44.5882C32.0597 44.5882 31.9978 44.5595 31.9456 44.5018C31.8946 44.4443 31.8691 44.375 31.8691 44.2941C31.8691 44.2132 31.8946 44.144 31.9456 44.0864C31.9978 44.0288 32.0597 44 32.1317 44C32.2036 44 32.2651 44.0288 32.3161 44.0864C32.3682 44.144 32.3943 44.2132 32.3943 44.2941C32.3943 44.375 32.3682 44.4443 32.3161 44.5018C32.2651 44.5595 32.2036 44.5882 32.1317 44.5882ZM33.3135 46.1838V47.8823H32.9446V45.0588H33.301V45.5H33.3322C33.3885 45.3566 33.474 45.2414 33.5886 45.1544C33.7032 45.0662 33.8512 45.0221 34.0325 45.0221C34.195 45.0221 34.3373 45.0613 34.4592 45.1397C34.5811 45.2169 34.6759 45.3345 34.7437 45.4927C34.8114 45.6495 34.8453 45.8481 34.8453 46.0882V47.8823H34.4764V46.1176C34.4764 45.8959 34.4274 45.723 34.3295 45.5992C34.2315 45.4743 34.0971 45.4117 33.9262 45.4117C33.8084 45.4117 33.7032 45.4418 33.6105 45.5019C33.5188 45.5619 33.4463 45.6495 33.3932 45.7647C33.3401 45.8799 33.3135 46.0196 33.3135 46.1838ZM36.4445 49C36.2662 49 36.1131 48.973 35.9849 48.9191C35.8567 48.8664 35.7499 48.7966 35.6645 48.7095C35.5801 48.6238 35.5128 48.5319 35.4629 48.4338L35.7567 48.1911C35.79 48.2426 35.8322 48.3015 35.8833 48.3677C35.9344 48.435 36.0042 48.4932 36.0928 48.5423C36.1824 48.5925 36.2996 48.6176 36.4445 48.6176C36.6383 48.6176 36.7982 48.5625 36.9243 48.4522C37.0504 48.3419 37.1134 48.1691 37.1134 47.9338V47.3603H37.0822C37.0551 47.4117 37.0165 47.4755 36.9665 47.5515C36.9175 47.6262 36.8467 47.693 36.7539 47.7518C36.6622 47.8094 36.5382 47.8382 36.3819 47.8382C36.1881 47.8382 36.0141 47.7843 35.8599 47.6764C35.7067 47.5686 35.5853 47.4117 35.4957 47.2059C35.4071 47 35.3628 46.75 35.3628 46.4559C35.3628 46.1666 35.4061 45.9148 35.4925 45.7004C35.579 45.4847 35.6994 45.318 35.8536 45.2004C36.0078 45.0815 36.186 45.0221 36.3882 45.0221C36.5445 45.0221 36.6685 45.0527 36.7602 45.114C36.8529 45.174 36.9238 45.2426 36.9727 45.3198C37.0228 45.3958 37.0613 45.4583 37.0884 45.5073H37.1259V45.0588H37.4823V47.9632C37.4823 48.2059 37.4354 48.4032 37.3416 48.5551C37.2489 48.7083 37.1239 48.8204 36.9665 48.8915C36.8102 48.9638 36.6362 49 36.4445 49ZM36.4319 47.4485C36.5799 47.4485 36.7049 47.4087 36.8071 47.329C36.9092 47.2494 36.9868 47.1348 37.04 46.9853C37.0931 46.8358 37.1197 46.6568 37.1197 46.4485C37.1197 46.2451 37.0936 46.0656 37.0416 45.9099C36.9894 45.7543 36.9123 45.6324 36.8102 45.5441C36.7081 45.4559 36.582 45.4117 36.4319 45.4117C36.2756 45.4117 36.1454 45.4583 36.0412 45.5514C35.938 45.6446 35.8604 45.7696 35.8083 45.9264C35.7572 46.0834 35.7317 46.2573 35.7317 46.4485C35.7317 46.6446 35.7578 46.818 35.8098 46.9688C35.863 47.1182 35.9412 47.2359 36.0443 47.3217C36.1485 47.4062 36.2777 47.4485 36.4319 47.4485ZM38.3824 47.9117C38.3053 47.9117 38.2391 47.8793 38.1839 47.8143C38.1286 47.7494 38.101 47.6715 38.101 47.5809C38.101 47.4902 38.1286 47.4124 38.1839 47.3474C38.2391 47.2825 38.3053 47.25 38.3824 47.25C38.4595 47.25 38.5257 47.2825 38.5809 47.3474C38.6361 47.4124 38.6637 47.4902 38.6637 47.5809C38.6637 47.6409 38.6507 47.6961 38.6247 47.7463C38.5997 47.7966 38.5658 47.837 38.5231 47.8676C38.4814 47.8971 38.4345 47.9117 38.3824 47.9117ZM39.5505 47.9117C39.4734 47.9117 39.4073 47.8793 39.352 47.8143C39.2968 47.7494 39.2692 47.6715 39.2692 47.5809C39.2692 47.4902 39.2968 47.4124 39.352 47.3474C39.4073 47.2825 39.4734 47.25 39.5505 47.25C39.6276 47.25 39.6938 47.2825 39.749 47.3474C39.8043 47.4124 39.8319 47.4902 39.8319 47.5809C39.8319 47.6409 39.8189 47.6961 39.7928 47.7463C39.7678 47.7966 39.7339 47.837 39.6912 47.8676C39.6495 47.8971 39.6026 47.9117 39.5505 47.9117ZM40.7187 47.9117C40.6416 47.9117 40.5754 47.8793 40.5202 47.8143C40.4649 47.7494 40.4373 47.6715 40.4373 47.5809C40.4373 47.4902 40.4649 47.4124 40.5202 47.3474C40.5754 47.2825 40.6416 47.25 40.7187 47.25C40.7958 47.25 40.8619 47.2825 40.9172 47.3474C40.9724 47.4124 41 47.4902 41 47.5809C41 47.6409 40.987 47.6961 40.9609 47.7463C40.9359 47.7966 40.9021 47.837 40.8593 47.8676C40.8177 47.8971 40.7708 47.9117 40.7187 47.9117Z" fill="#8C8C8C"/>
</g>
<defs>
<clipPath id="clip0_311_7">
<rect width="48" height="70" fill="white"/>
</clipPath>
</defs>
</svg>
