<?xml version="1.0" encoding="UTF-8"?>
<svg id="Layer_2" data-name="Layer 2" xmlns="http://www.w3.org/2000/svg" viewBox="0 0 98.49 17.94">
  <defs>
    <style>
      .cls-1 {
        fill: #4f86f6;
      }

      .cls-1, .cls-2, .cls-3 {
        stroke-width: 0px;
      }

      .cls-2 {
        fill: #444;
      }

      .cls-3 {
        fill: silver;
      }
    </style>
  </defs>
  <g id="All_on_White" data-name="All on White">
    <g id="Contxtual">
      <path class="cls-2" d="m4.96,13.49c-2.93,0-4.96-2.04-4.96-4.84S2.04,3.69,4.96,3.69c2.29,0,4.07,1.4,4.71,3.31h-1.91c-.51-1.02-1.53-1.53-2.8-1.53-1.78,0-3.18,1.27-3.18,3.18,0,1.78,1.27,3.05,3.18,3.05,1.27,0,2.29-.51,2.8-1.53h1.91c-.51,1.91-2.42,3.31-4.71,3.31Z"/>
      <path class="cls-2" d="m10.94,8.53c0-2.8,2.04-4.84,4.96-4.84s4.96,2.04,4.96,4.84-2.16,4.84-4.96,4.84c-2.93.13-4.96-2.04-4.96-4.84Zm4.96,3.18c1.78,0,3.18-1.27,3.18-3.05,0-1.91-1.27-3.18-3.18-3.18-1.78,0-3.18,1.27-3.18,3.18.13,1.65,1.4,3.05,3.18,3.05Z"/>
      <path class="cls-2" d="m22.52,3.94h1.65v1.4c.64-1.02,1.65-1.53,2.93-1.53,2.42,0,3.82,1.91,3.82,4.2v5.34h-1.91v-5.47c0-1.53-.89-2.55-2.16-2.42-1.65,0-2.55,1.4-2.55,2.8v4.96h-1.78s0-9.29,0-9.29Z"/>
      <path class="cls-2" d="m32.45,3.94h.38c.25,0,.51-.13.64-.25.25-.25.25-.51.25-1.02V.13h1.91v3.82h1.4v1.53h-1.4v4.2c0,1.02.25,1.91,1.27,1.91h.13v1.78h-.25c-2.29,0-3.05-1.78-3.05-3.56v-4.45h-1.4v-1.4h.13Z"/>
      <path class="cls-2" d="m49.5,3.94h.38c.25,0,.51-.13.64-.25.25-.25.25-.51.25-1.02V.13h1.91v3.82h1.4v1.53h-1.4v4.2c0,1.02.25,1.91,1.27,1.91h.13v1.78h-.25c-2.29,0-3.05-1.78-3.05-3.56v-4.45h-1.4v-1.4h.13Z"/>
      <path class="cls-2" d="m57.9,3.94v5.34c0,1.53,1.02,2.29,2.16,2.29s2.29-.76,2.29-2.29V3.94h1.91v5.34c0,2.29-1.65,4.2-4.07,4.2s-4.07-1.91-4.07-4.2V3.94h1.78Z"/>
      <path class="cls-2" d="m75.71,13.23h-1.65v-1.27c-.76.89-1.91,1.53-3.31,1.53-2.93,0-4.96-2.04-4.96-4.84s2.04-4.84,4.96-4.84c1.4,0,2.55.64,3.31,1.4v-1.27h1.65v9.29Zm-4.96-1.53c1.78,0,3.18-1.27,3.18-3.05s-1.27-3.18-3.18-3.18c-1.78,0-3.18,1.27-3.18,3.18,0,1.65,1.27,3.05,3.18,3.05Z"/>
      <path class="cls-2" d="m77.62.13h1.91v13.11h-1.91V.13Z"/>
      <path class="cls-3" d="m81.95,12.22c0-.64.51-1.15,1.27-1.15.64,0,1.15.51,1.15,1.15s-.51,1.15-1.15,1.15c-.76,0-1.27-.51-1.27-1.15Z"/>
      <path class="cls-3" d="m85,3.94h.38c.25,0,.51-.13.64-.25.25-.25.38-.51.38-1.02V.13h1.91v3.82h1.4v1.53h-1.4v4.2c0,1.02.25,1.91,1.27,1.91h.13v1.78h-.25c-2.29,0-3.05-1.78-3.05-3.56v-4.45h-1.4v-1.4Z"/>
      <path class="cls-3" d="m92.77,3.94l1.91,5.22,1.91-5.22h1.91l-3.82,9.67-3.82-9.67s1.91,0,1.91,0Z"/>
      <g>
        <polygon class="cls-1" points="48.1 5.47 46.83 4.2 43.52 7.51 40.08 4.2 38.94 5.47 42.25 8.78 38.94 12.22 40.08 13.36 43.52 10.05 46.83 13.36 48.1 12.22 44.79 8.78 48.1 5.47"/>
        <rect class="cls-1" x="38.81" y="14.25" width="9.42" height="1.78"/>
      </g>
    </g>
  </g>
</svg>