<svg width="75" height="75" viewBox="0 0 75 75" fill="none" xmlns="http://www.w3.org/2000/svg">
<path d="M57.5117 65.8197C57.1902 65.8197 56.9668 65.5963 56.9668 65.2884C56.9668 64.9669 57.1902 64.7435 57.5117 64.7435C57.7623 64.7435 57.9585 64.8988 58.0293 65.1086H57.8195C57.7623 64.9969 57.6506 64.9397 57.5117 64.9397C57.3155 64.9397 57.163 65.0786 57.163 65.2884C57.163 65.4846 57.3019 65.6235 57.5117 65.6235C57.6506 65.6235 57.7623 65.5663 57.8195 65.4546H58.0293C57.9748 65.6644 57.765 65.8197 57.5117 65.8197Z" fill="white"/>
<path d="M58.1709 65.2721C58.1709 64.9642 58.3943 64.7408 58.7158 64.7408C59.0372 64.7408 59.2606 64.9642 59.2606 65.2721C59.2606 65.58 59.0236 65.8033 58.7158 65.8033C58.3943 65.8197 58.1709 65.58 58.1709 65.2721ZM58.7158 65.6235C58.9119 65.6235 59.0645 65.4846 59.0645 65.2884C59.0645 65.0787 58.9255 64.9397 58.7158 64.9397C58.5196 64.9397 58.3671 65.0787 58.3671 65.2884C58.3807 65.4683 58.5196 65.6235 58.7158 65.6235Z" fill="white"/>
<path d="M59.4434 64.768H59.6259V64.9233C59.6967 64.8116 59.8084 64.7544 59.9474 64.7544C60.2144 64.7544 60.3669 64.9642 60.3669 65.2175V65.806H60.1572V65.2039C60.1572 65.035 60.0591 64.9233 59.9201 64.9369C59.7376 64.9369 59.6395 65.0922 59.6395 65.2448V65.7897H59.4434C59.4434 65.7924 59.4434 64.768 59.4434 64.768Z" fill="white"/>
<path d="M60.5359 64.7682H60.5767C60.604 64.7682 60.634 64.7546 60.6476 64.7409C60.6748 64.7137 60.6748 64.6837 60.6748 64.6292V64.3486H60.8846V64.7682H61.0399V64.9371H60.8846V65.4002C60.8846 65.5119 60.9118 65.61 61.0235 65.61H61.0372V65.8062H61.0099C60.7593 65.8062 60.6748 65.61 60.6748 65.4139V64.9235H60.5195V64.7682H60.5359Z" fill="white"/>
<path d="M62.4099 64.7682H62.4508C62.478 64.7682 62.508 64.7546 62.5216 64.7409C62.5488 64.7137 62.5488 64.6837 62.5488 64.6292V64.3486H62.7586V64.7682H62.9139V64.9371H62.7586V65.4002C62.7586 65.5119 62.7859 65.61 62.8976 65.61H62.9112V65.8062H62.8839C62.6333 65.8062 62.5488 65.61 62.5488 65.4139V64.9235H62.3936V64.7682H62.4099Z" fill="white"/>
<path d="M63.3338 64.7681V65.3565C63.3338 65.5254 63.4455 65.6072 63.5709 65.6072C63.6962 65.6072 63.8215 65.5227 63.8215 65.3565V64.7681H64.0313V65.3565C64.0313 65.6072 63.8488 65.8197 63.5845 65.8197C63.3202 65.8197 63.1377 65.6099 63.1377 65.3565V64.7681H63.3338Z" fill="white"/>
<path d="M65.2927 65.7925H65.1101V65.6536C65.0257 65.7517 64.9004 65.8225 64.7451 65.8225C64.4236 65.8225 64.2002 65.5991 64.2002 65.2913C64.2002 64.9834 64.4236 64.76 64.7451 64.76C64.9004 64.76 65.0257 64.8308 65.1101 64.9153V64.7764H65.2927V65.7925ZM64.7478 65.6236C64.944 65.6236 65.0965 65.4847 65.0965 65.2885C65.0965 65.0924 64.9576 64.9398 64.7478 64.9398C64.5516 64.9398 64.3991 65.0788 64.3991 65.2885C64.3991 65.4683 64.538 65.6236 64.7478 65.6236Z" fill="white"/>
<path d="M65.5049 64.3486H65.7147V65.7898H65.5049V64.3486Z" fill="white"/>
<path d="M65.9785 65.6781C65.9785 65.6072 66.0357 65.5527 66.1175 65.5527C66.1883 65.5527 66.2428 65.6099 66.2428 65.6781C66.2428 65.7462 66.1856 65.8034 66.1175 65.8034C66.0357 65.8061 65.9785 65.7489 65.9785 65.6781Z" fill="#C0C0C0"/>
<path d="M66.3143 64.7682H66.3551C66.3824 64.7682 66.4123 64.7546 66.4259 64.7409C66.4532 64.7137 66.4668 64.6837 66.4668 64.6292V64.3486H66.6766V64.7682H66.8319V64.9371H66.6766V65.4002C66.6766 65.5119 66.7038 65.61 66.8155 65.61H66.8292V65.8062H66.8019C66.5513 65.8062 66.4668 65.61 66.4668 65.4139V64.9235H66.3115V64.7682H66.3143Z" fill="#C0C0C0"/>
<path d="M67.1697 64.7681L67.3795 65.3429L67.5893 64.7681H67.7991L67.3795 65.8306L66.96 64.7681H67.1697Z" fill="#C0C0C0"/>
<path d="M62.257 64.9369L62.1154 64.798L61.753 65.1603L61.3743 64.798L61.249 64.9369L61.6114 65.302L61.249 65.6779L61.3743 65.806L61.753 65.4409L62.1154 65.806L62.257 65.6779L61.892 65.302L62.257 64.9369Z" fill="#4F86F6"/>
<path d="M62.2706 65.9042H61.2354V66.1003H62.2706V65.9042Z" fill="#4F86F6"/>
<path d="M7.81836 13.9341V20.2819H14.1661H20.5139V13.9341V7.58629H14.1661H7.81836V13.9341ZM18.7158 13.9341V18.4838H14.1661H9.61644V13.9341V9.38437H14.1661H18.7158V13.9341Z" fill="white"/>
<path d="M11.4414 13.9341V16.6584H14.1658H16.8901V13.9341V11.2097H14.1658H11.4414V13.9341Z" fill="white"/>
<path d="M24.1646 8.48534V9.38439H25.0636H25.9627V11.2097V13.035H25.0636H24.1646V12.1224V11.2097H23.2519H22.3393V13.0214V14.8331H23.2519H24.1646V16.6585V18.4838H23.2519H22.3393V19.3828V20.2819H23.2519H24.1646V21.1945V22.1072H25.0636H25.9627V23.0199V23.9325H24.151H22.3393V23.0199V22.1072H20.5276H18.7158V23.0199V23.9325H17.8032H16.8905V23.0199V22.1072H15.0788H13.2671V24.8316V27.5559H12.3544H11.4418V25.7442V23.9325H10.5291H9.61644V24.8316V25.7306H8.7174H7.81836V26.6433V27.5559H9.63007H11.4418V28.4686V29.3813H10.5291H9.61644V31.193V33.0047H8.7174H7.81836V34.8164V36.6281H8.7174H9.61644V35.7291V34.83H10.5291H11.4418V35.7291V36.6281H12.3544H13.2671V37.5408V38.4534H14.1661H15.0652V40.2651V42.0768H14.1661H13.2671V41.1642V40.2515H12.3544H11.4418V39.3525V38.4534H10.5291H9.61644V40.2651V42.0768H8.7174H7.81836V47.5256V52.9743H10.5427H13.2671V52.0617V51.149H11.4418H9.61644V49.3373V47.5256H11.4418H13.2671V48.4383V49.3509H14.1661H15.0652V50.25V51.149H15.9779H16.8905V52.0617V52.9743H19.6149H22.3393V54.786V56.5978H23.2519H24.1646V57.5104V58.4231H23.2519H22.3393V60.2348V62.0465H24.151H25.9627V62.9592V63.8718H25.0636H24.1646V65.6835V67.4952H25.9763H27.788V66.5962V65.6972H26.8753H25.9627V64.7845V63.8718H27.788H29.6133V65.6835V67.4952H33.2367H36.8602V66.5962V65.6972H35.9611H35.0621V64.7845V63.8718H35.9611H36.8602V62.9592V62.0465H35.9611H35.0621V61.1475V60.2484H35.9611H36.8602V59.3357V58.4231H37.7728H38.6855V62.0601V65.6972H40.4972H42.3089V66.5962V67.4952H44.1206H45.9323V66.5962V65.6972H45.0333H44.1342V64.7845V63.8718H45.0333H45.9323V62.9592V62.0465H47.7577H49.583V62.9592V63.8718H48.6703H47.7577V64.7845V65.6972H48.6703H49.583V66.5962V67.4952H52.3074H55.0317V66.5962V65.6972H53.2064H51.3811V63.8718V62.0465H50.482H49.583V61.1475V60.2484H51.3947H53.2064V61.1475V62.0465H54.1191H55.0317V61.1475V60.2484H55.9308H56.8298V61.1475V62.0465H57.7425H58.6551V61.1475V60.2484H59.5678H60.4805V59.3357V58.4231H61.3795H62.2786V59.3357V60.2484H63.1912H64.1039V61.1475V62.0465H65.0165H65.9292V59.3221V56.5978H65.0165H64.1039V55.6987V54.7997H65.0165H65.9292V53.887V52.9743H66.8283H67.7273V49.3373V45.7003H66.8283H65.9292V44.8012V43.9022H66.8283H67.7273V41.1778V38.4534H65.9156H64.1039V37.5408V36.6281H65.0165H65.9292V35.7291V34.83H64.1039H62.2786V35.7291V36.6281H61.3795H60.4805V34.8164V33.0047H59.5678H58.6551V34.8164V36.6281H57.7425H56.8298V35.7291V34.83H55.9308H55.0317V35.7291V36.6281H54.1191H53.2064V35.7291V34.83H52.2937H51.3811V35.7291V36.6281H52.2937H53.2064V37.5408V38.4534H52.2937H51.3811V39.3525V40.2515H50.482H49.583V39.3525V38.4534H48.6703H47.7577V41.1778V43.9022H46.845H45.9323V42.9895V42.0768H44.1206H42.3089V40.2651V38.4534H41.3962H40.4836V39.3525V40.2515H39.5845H38.6855V39.3525V38.4534H37.7728H36.8602V39.3525V40.2515H35.9611H35.0621V39.3525V38.4534H34.1494H33.2367V39.3525V40.2515H32.3241H31.4114V37.5408V34.83H33.2367H35.0621V35.7291V36.6281H35.9611H36.8602V35.7291V34.83H37.7728H38.6855V35.7291V36.6281H40.4972H42.3089V35.7291V34.83H44.1206H45.9323V33.9174V33.0047H50.482H55.0317V32.092V31.1794H55.9308H56.8298V30.2803V29.3813H57.7425H58.6551V30.2803V31.1794H60.4668H62.2786V32.092V33.0047H64.1039H65.9292V32.092V31.1794H66.8283H67.7273V28.455V25.7306H64.1039H60.4805V24.8316V23.9325H62.2922H64.1039V23.0199V22.1072H62.2922H60.4805V23.0199V23.9325H58.6551H56.8298V25.7442V27.5559H55.9308H55.0317V25.7442V23.9325H54.1191H53.2064V25.7442V27.5559H54.1191H55.0317V29.3677V31.1794H54.1191H53.2064V30.2803V29.3813H52.2937H51.3811V30.2803V31.1794H50.482H49.583V30.2803V29.3813H46.8586H44.1342V30.2803V31.1794H43.2216H42.3089V30.2803V29.3813H41.3962H40.4836V28.4686V27.5559H42.3089H44.1342V26.6433V25.7306H42.3089H40.4836V23.9189V22.1072H39.5845H38.6855V23.9189V25.7306H37.7728H36.8602V26.6433V27.5559H35.9611H35.0621V28.4686V29.3813H33.2367H31.4114V32.1056V34.83H30.5124H29.6133V33.9174V33.0047H28.7007H27.788V32.092V31.1794H26.8753H25.9627V30.2803V29.3813H27.788H29.6133V28.4686V27.5559H31.425H33.2367V26.6433V25.7306H34.1494H35.0621V24.8316V23.9325H35.9611H36.8602V22.1072V20.2819H37.7728H38.6855V19.3828V18.4838H39.5845H40.4836V19.3828V20.2819H41.3962H42.3089V19.3828V18.4838H43.2216H44.1342V20.2955V22.1072H43.2216H42.3089V23.0199V23.9325H43.2216H44.1342V23.0199V22.1072H45.0333H45.9323V20.2955V18.4838H46.845H47.7577V19.3828V20.2819H48.6703H49.583V21.1945V22.1072H48.6703H47.7577V23.0199V23.9325H48.6703H49.583V25.7442V27.5559H50.482H51.3811V23.9189V20.2819H52.2937H53.2064V18.4702V16.6585H52.2937H51.3811V15.7458V14.8331H52.2937H53.2064V11.2097V7.5863H52.2937H51.3811V9.39801V11.2097H50.482H49.583V9.39801V7.5863H48.6703H47.7577V8.48534V9.38439H46.845H45.9323V8.48534V7.5863H44.1206H42.3089V8.48534V9.38439H43.2216H44.1342V10.2971V11.2097H43.2216H42.3089V12.1224V13.035H43.2216H44.1342V12.1224V11.2097H45.0333H45.9323V13.0214V14.8331H45.0333H44.1342V15.7458V16.6585H43.2216H42.3089V17.5711V18.4838H41.3962H40.4836V17.5711V16.6585H38.6719H36.8602V15.7458V14.8331H38.6719H40.4836V12.1088V9.38439H39.5845H38.6855V8.48534V7.5863H37.7728H36.8602V8.48534V9.38439H35.0485H33.2367V10.2971V11.2097H31.425H29.6133V9.39801V7.5863H28.7007H27.788V8.48534V9.38439H26.8753H25.9627V8.48534V7.5863H25.0636H24.1646V8.48534ZM38.6855 12.1224V13.035H37.7728H36.8602V12.1224V11.2097H37.7728H38.6855V12.1224ZM49.583 12.1224V13.035H48.6703H47.7577V12.1224V11.2097H48.6703H49.583V12.1224ZM29.6133 13.9341V14.8331H30.5124H31.4114V15.7458V16.6585H30.5124H29.6133V18.4702V20.2819H30.5124H31.4114V19.3828V18.4838H32.3241H33.2367V19.3828V20.2819H34.1494H35.0621V19.3828V18.4838H35.9611H36.8602V19.3828V20.2819H35.9611H35.0621V22.1072V23.9325H34.1494H33.2367V22.1072V20.2819H32.3241H31.4114V21.1945V22.1072H30.5124H29.6133V23.0199V23.9325H28.7007H27.788V24.8316V25.7306H28.7007H29.6133V26.6433V27.5559H28.7007H27.788V26.6433V25.7306H26.8753H25.9627V26.6433V27.5559H25.0636H24.1646V28.4686V29.3813H23.2519H22.3393V30.2803V31.1794H23.2519H24.1646V32.092V33.0047H25.0636H25.9627V33.9174V34.83H26.8753H27.788V35.7291V36.6281H26.8753H25.9627V35.7291V34.83H24.151H22.3393V33.9174V33.0047H19.6149H16.8905V34.8164V36.6281H15.0788H13.2671V35.7291V34.83H12.3544H11.4418V32.1056V29.3813H12.3544H13.2671V32.1056V34.83H14.1661H15.0652V33.0047V31.1794H15.9779H16.8905V30.2803V29.3813H15.9779H15.0652V27.5559V25.7306H15.9779H16.8905V27.5559V29.3813H17.8032H18.7158V28.4686V27.5559H19.6149H20.5139V26.6433V25.7306H19.6149H18.7158V24.8316V23.9325H20.5276H22.3393V25.7442V27.5559H23.2519H24.1646V26.6433V25.7306H25.0636H25.9627V24.8316V23.9325H26.8753H27.788V23.0199V22.1072H26.8753H25.9627V21.1945V20.2819H25.0636H24.1646V19.3828V18.4838H25.0636H25.9627V19.3828V20.2819H26.8753H27.788V16.6585V13.035H28.7007H29.6133V13.9341ZM35.0621 15.7458V16.6585H34.1494H33.2367V15.7458V14.8331H34.1494H35.0621V15.7458ZM45.9323 17.5711V18.4838H45.0333H44.1342V17.5711V16.6585H45.0333H45.9323V17.5711ZM51.3811 18.4702V20.2819H50.482H49.583V18.4702V16.6585H50.482H51.3811V18.4702ZM40.4836 26.6433V27.5559H39.5845H38.6855V26.6433V25.7306H39.5845H40.4836V26.6433ZM60.4805 26.6433V27.5559H61.3795H62.2786V28.4686V29.3813H61.3795H60.4805V28.4686V27.5559H59.5678H58.6551V26.6433V25.7306H59.5678H60.4805V26.6433ZM65.9292 28.4686V29.3813H65.0165H64.1039V28.4686V27.5559H65.0165H65.9292V28.4686ZM36.8602 30.2803V31.1794H35.9611H35.0621V30.2803V29.3813H35.9611H36.8602V30.2803ZM40.4836 30.2803V31.1794H41.3962H42.3089V32.092V33.0047H41.3962H40.4836V33.9174V34.83H39.5845H38.6855V32.1056V29.3813H39.5845H40.4836V30.2803ZM45.9323 32.092V33.0047H45.0333H44.1342V32.092V31.1794H45.0333H45.9323V32.092ZM20.5139 35.7291V36.6281H19.6149H18.7158V35.7291V34.83H19.6149H20.5139V35.7291ZM24.1646 37.5408V38.4534H23.2519H22.3393V41.1778V43.9022H19.6149H16.8905V41.1778V38.4534H19.6149H22.3393V37.5408V36.6281H23.2519H24.1646V37.5408ZM29.6133 39.3525V40.2515H30.5124H31.4114V41.1642V42.0768H30.5124H29.6133V43.8886V45.7003H27.788H25.9627V44.8012V43.9022H25.0636H24.1646V42.0768V40.2515H25.9763H27.788V39.3525V38.4534H28.7007H29.6133V39.3525ZM56.8298 41.1778V43.9022H55.9308H55.0317V46.6266V49.3509H55.9308H56.8298V50.25V51.149H55.0181H53.2064V50.25V49.3509H52.2937H51.3811V48.4383V47.5256H50.482H49.583V46.6129V45.7003H48.6703H47.7577V44.8012V43.9022H51.3947H55.0317V42.9895V42.0768H53.2064H51.3811V41.1642V40.2515H52.2937H53.2064V39.3525V38.4534H55.0181H56.8298V41.1778ZM64.1039 39.3525V40.2515H65.0165H65.9292V42.0768V43.9022H65.0165H64.1039V45.7139V47.5256H63.1912H62.2786V49.3373V51.149H64.1039H65.9292V52.0617V52.9743H65.0165H64.1039V53.887V54.7997H63.1912H62.2786V53.887V52.9743H61.3795H60.4805V51.1626V49.3509H59.5678H58.6551V48.4383V47.5256H57.7425H56.8298V46.6129V45.7003H57.7425H58.6551V43.8886V42.0768H59.5678H60.4805V43.8886V45.7003H61.3795H62.2786V44.8012V43.9022H63.1912H64.1039V42.0768V40.2515H63.1912H62.2786V39.3525V38.4534H63.1912H64.1039V39.3525ZM35.0621 41.1642V42.0768H35.9611H36.8602V41.1642V40.2515H37.7728H38.6855V41.1642V42.0768H39.5845H40.4836V42.9895V43.9022H42.3089H44.1342V44.8012V45.7003H45.0333H45.9323V46.6129V47.5256H45.0333H44.1342V48.4383V49.3509H43.2216H42.3089V48.4383V47.5256H43.2216H44.1342V46.6129V45.7003H42.3089H40.4836V50.25V54.7997H39.5845H38.6855V55.6987V56.5978H40.4972H42.3089V55.6987V54.7997H43.2216H44.1342V53.887V52.9743H43.2216H42.3089V52.0617V51.149H43.2216H44.1342V52.0617V52.9743H45.0333H45.9323V51.1626V49.3509H47.7577H49.583V51.1626V52.9743H47.7577H45.9323V53.887V54.7997H47.7577H49.583V55.6987V56.5978H50.482H51.3811V57.5104V58.4231H50.482H49.583V57.5104V56.5978H47.7577H45.9323V55.6987V54.7997H45.0333H44.1342V55.6987V56.5978H43.2216H42.3089V57.5104V58.4231H44.1206H45.9323V59.3357V60.2484H45.0333H44.1342V62.0601V63.8718H42.3089H40.4836V62.0601V60.2484H41.3962H42.3089V59.3357V58.4231H40.4972H38.6855V57.5104V56.5978H37.7728H36.8602V55.6987V54.7997H35.9611H35.0621V53.887V52.9743H34.1494H33.2367V52.0617V51.149H35.0485H36.8602V52.0617V52.9743H37.7728H38.6855V51.1626V49.3509H35.9611H33.2367V48.4383V47.5256H35.9611H38.6855V46.6129V45.7003H39.5845H40.4836V44.8012V43.9022H39.5845H38.6855V42.9895V42.0768H37.7728H36.8602V42.9895V43.9022H35.9611H35.0621V44.8012V45.7003H34.1494H33.2367V42.9759V40.2515H34.1494H35.0621V41.1642ZM11.4418 43.8886V45.7003H10.5291H9.61644V43.8886V42.0768H10.5291H11.4418V43.8886ZM15.0652 44.8012V45.7003H17.7896H20.5139V46.6129V47.5256H18.7022H16.8905V48.4383V49.3509H19.6149H22.3393V50.25V51.149H19.6149H16.8905V50.25V49.3509H15.9779H15.0652V48.4383V47.5256H14.1661H13.2671V45.7139V43.9022H14.1661H15.0652V44.8012ZM29.6133 48.4383V49.3509H30.5124H31.4114V51.1626V52.9743H30.5124H29.6133V53.887V54.7997H30.5124H31.4114V55.6987V56.5978H32.3241H33.2367V57.5104V58.4231H32.3241H31.4114V57.5104V56.5978H30.5124H29.6133V55.6987V54.7997H28.7007H27.788V57.524V60.2484H30.5124H33.2367V62.0601V63.8718H32.3241H31.4114V62.9592V62.0465H28.687H25.9627V61.1475V60.2484H25.0636H24.1646V59.3357V58.4231H25.0636H25.9627V56.6114V54.7997H26.8753H27.788V53.887V52.9743H25.9763H24.1646V51.1626V49.3509H25.0636H25.9627V48.4383V47.5256H27.788H29.6133V48.4383ZM58.6551 55.6987V58.4231H55.9308H53.2064V55.6987V52.9743H55.9308H58.6551V55.6987Z" fill="white"/>
<path d="M27.7881 21.1945V22.1072H28.7008H29.6134V21.1945V20.2818H28.7008H27.7881V21.1945Z" fill="white"/>
<path d="M18.7158 30.2803V31.1793H19.6149H20.5139V30.2803V29.3812H19.6149H18.7158V30.2803Z" fill="white"/>
<path d="M18.7158 41.1642V42.0769H19.6149H20.5139V41.1642V40.2516H19.6149H18.7158V41.1642Z" fill="white"/>
<path d="M25.9629 42.9896V43.9022H26.8756H27.7882V42.9896V42.0769H26.8756H25.9629V42.9896Z" fill="white"/>
<path d="M51.3809 46.6128V47.5255H52.2935H53.2062V46.6128V45.7002H52.2935H51.3809V46.6128Z" fill="white"/>
<path d="M58.6553 46.6128V47.5255H59.5679H60.4806V46.6128V45.7002H59.5679H58.6553V46.6128Z" fill="white"/>
<path d="M27.7881 50.25V51.149H28.7008H29.6134V50.25V49.351H28.7008H27.7881V50.25Z" fill="white"/>
<path d="M55.0322 55.6987V56.5978H55.9313H56.8303V55.6987V54.7997H55.9313H55.0322V55.6987Z" fill="white"/>
<path d="M55.0322 13.9341V20.2819H61.38H67.7278V13.9341V7.58629H61.38H55.0322V13.9341ZM65.9297 13.9341V18.4838H61.38H56.8303V13.9341V9.38437H61.38H65.9297V13.9341Z" fill="white"/>
<path d="M58.6553 13.9341V16.6584H61.3796H64.104V13.9341V11.2097H61.3796H58.6553V13.9341Z" fill="white"/>
<path d="M45.9326 26.6434V27.556H46.8453H47.7579V26.6434V25.7307H46.8453H45.9326V26.6434Z" fill="white"/>
<path d="M44.1338 39.3524V40.2515H45.0328H45.9319V39.3524V38.4534H45.0328H44.1338V39.3524Z" fill="white"/>
<path d="M7.81836 61.1475V67.4952H14.1661H20.5139V61.1475V54.7997H14.1661H7.81836V61.1475ZM18.7158 61.1475V65.6972H14.1661H9.61644V61.1475V56.5978H14.1661H18.7158V61.1475Z" fill="white"/>
<path d="M11.4414 61.1475V63.8718H14.1658H16.8901V61.1475V58.4231H14.1658H11.4414V61.1475Z" fill="white"/>
</svg>
