<svg width="21" height="20" viewBox="0 0 21 20" fill="none" xmlns="http://www.w3.org/2000/svg">
<g clip-path="url(#clip0_3759_88432)">
<path fill-rule="evenodd" clip-rule="evenodd" d="M8 4.375C8 4.20924 8.06585 4.05027 8.18306 3.93306C8.30027 3.81585 8.45924 3.75 8.625 3.75H18.625C18.7908 3.75 18.9497 3.81585 19.0669 3.93306C19.1842 4.05027 19.25 4.20924 19.25 4.375V15.625C19.25 15.7908 19.1842 15.9497 19.0669 16.0669C18.9497 16.1842 18.7908 16.25 18.625 16.25H8.625C8.45924 16.25 8.30027 16.1842 8.18306 16.0669C8.06585 15.9497 8 15.7908 8 15.625V13.125C8 12.9592 7.93415 12.8003 7.81694 12.6831C7.69973 12.5658 7.54076 12.5 7.375 12.5C7.20924 12.5 7.05027 12.5658 6.93306 12.6831C6.81585 12.8003 6.75 12.9592 6.75 13.125V15.625C6.75 16.1223 6.94754 16.5992 7.29917 16.9508C7.65081 17.3025 8.12772 17.5 8.625 17.5H18.625C19.1223 17.5 19.5992 17.3025 19.9508 16.9508C20.3025 16.5992 20.5 16.1223 20.5 15.625V4.375C20.5 3.87772 20.3025 3.40081 19.9508 3.04917C19.5992 2.69754 19.1223 2.5 18.625 2.5H8.625C8.12772 2.5 7.65081 2.69754 7.29917 3.04917C6.94754 3.40081 6.75 3.87772 6.75 4.375V6.875C6.75 7.04076 6.81585 7.19973 6.93306 7.31694C7.05027 7.43415 7.20924 7.5 7.375 7.5C7.54076 7.5 7.69973 7.43415 7.81694 7.31694C7.93415 7.19973 8 7.04076 8 6.875V4.375Z" fill="white"/>
<path fill-rule="evenodd" clip-rule="evenodd" d="M15.3175 10.4425C15.3757 10.3844 15.4219 10.3155 15.4534 10.2395C15.4849 10.1636 15.5011 10.0822 15.5011 10C15.5011 9.91779 15.4849 9.83639 15.4534 9.76045C15.4219 9.68452 15.3757 9.61555 15.3175 9.5575L11.5675 5.8075C11.5094 5.74939 11.4404 5.70329 11.3645 5.67184C11.2886 5.64039 11.2072 5.62421 11.125 5.62421C11.0428 5.62421 10.9614 5.64039 10.8855 5.67184C10.8096 5.70329 10.7406 5.74939 10.6825 5.8075C10.6244 5.86561 10.5783 5.93459 10.5468 6.01052C10.5154 6.08644 10.4992 6.16782 10.4992 6.25C10.4992 6.33218 10.5154 6.41355 10.5468 6.48948C10.5783 6.5654 10.6244 6.63439 10.6825 6.6925L13.3663 9.375H2.375C2.20924 9.375 2.05027 9.44084 1.93306 9.55805C1.81585 9.67526 1.75 9.83424 1.75 10C1.75 10.1658 1.81585 10.3247 1.93306 10.4419C2.05027 10.5591 2.20924 10.625 2.375 10.625H13.3663L10.6825 13.3075C10.6244 13.3656 10.5783 13.4346 10.5468 13.5105C10.5154 13.5864 10.4992 13.6678 10.4992 13.75C10.4992 13.8322 10.5154 13.9136 10.5468 13.9895C10.5783 14.0654 10.6244 14.1344 10.6825 14.1925C10.7406 14.2506 10.8096 14.2967 10.8855 14.3282C10.9614 14.3596 11.0428 14.3758 11.125 14.3758C11.2072 14.3758 11.2886 14.3596 11.3645 14.3282C11.4404 14.2967 11.5094 14.2506 11.5675 14.1925L15.3175 10.4425Z" fill="white"/>
</g>
<defs>
<clipPath id="clip0_3759_88432">
<rect width="20" height="20" fill="white" transform="translate(0.5)"/>
</clipPath>
</defs>
</svg>
