<svg width="21" height="20" viewBox="0 0 21 20" fill="none" xmlns="http://www.w3.org/2000/svg">
<g clip-path="url(#clip0_3759_59946)">
<path fill-rule="evenodd" clip-rule="evenodd" d="M13 15.625C13 15.7908 12.9342 15.9497 12.8169 16.0669C12.6997 16.1842 12.5408 16.25 12.375 16.25H2.375C2.20924 16.25 2.05027 16.1842 1.93306 16.0669C1.81585 15.9497 1.75 15.7908 1.75 15.625V4.375C1.75 4.20924 1.81585 4.05027 1.93306 3.93306C2.05027 3.81585 2.20924 3.75 2.375 3.75H12.375C12.5408 3.75 12.6997 3.81585 12.8169 3.93306C12.9342 4.05027 13 4.20924 13 4.375V6.875C13 7.04076 13.0658 7.19973 13.1831 7.31694C13.3003 7.43415 13.4592 7.5 13.625 7.5C13.7908 7.5 13.9497 7.43415 14.0669 7.31694C14.1842 7.19973 14.25 7.04076 14.25 6.875V4.375C14.25 3.87772 14.0525 3.40081 13.7008 3.04917C13.3492 2.69754 12.8723 2.5 12.375 2.5H2.375C1.87772 2.5 1.40081 2.69754 1.04917 3.04917C0.697544 3.40081 0.5 3.87772 0.5 4.375L0.5 15.625C0.5 16.1223 0.697544 16.5992 1.04917 16.9508C1.40081 17.3025 1.87772 17.5 2.375 17.5H12.375C12.8723 17.5 13.3492 17.3025 13.7008 16.9508C14.0525 16.5992 14.25 16.1223 14.25 15.625V13.125C14.25 12.9592 14.1842 12.8003 14.0669 12.6831C13.9497 12.5658 13.7908 12.5 13.625 12.5C13.4592 12.5 13.3003 12.5658 13.1831 12.6831C13.0658 12.8003 13 12.9592 13 13.125V15.625Z" fill="white"/>
<path fill-rule="evenodd" clip-rule="evenodd" d="M20.3175 10.4425C20.3757 10.3844 20.4219 10.3155 20.4534 10.2395C20.4849 10.1636 20.5011 10.0822 20.5011 10C20.5011 9.91779 20.4849 9.83639 20.4534 9.76045C20.4219 9.68452 20.3757 9.61555 20.3175 9.5575L16.5675 5.8075C16.4501 5.69014 16.291 5.62421 16.125 5.62421C15.959 5.62421 15.7999 5.69014 15.6825 5.8075C15.5651 5.92485 15.4992 6.08403 15.4992 6.25C15.4992 6.41597 15.5651 6.57514 15.6825 6.6925L18.3663 9.375H7.375C7.20924 9.375 7.05027 9.44084 6.93306 9.55805C6.81585 9.67526 6.75 9.83424 6.75 10C6.75 10.1658 6.81585 10.3247 6.93306 10.4419C7.05027 10.5591 7.20924 10.625 7.375 10.625H18.3663L15.6825 13.3075C15.5651 13.4249 15.4992 13.584 15.4992 13.75C15.4992 13.916 15.5651 14.0751 15.6825 14.1925C15.7999 14.3099 15.959 14.3758 16.125 14.3758C16.291 14.3758 16.4501 14.3099 16.5675 14.1925L20.3175 10.4425Z" fill="white"/>
</g>
<defs>
<clipPath id="clip0_3759_59946">
<rect width="20" height="20" fill="white" transform="translate(0.5)"/>
</clipPath>
</defs>
</svg>
