<svg width="20" height="20" viewBox="0 0 20 20" fill="none" xmlns="http://www.w3.org/2000/svg">
<g clip-path="url(#clip0_3424_160993)">
<path fill-rule="evenodd" clip-rule="evenodd" d="M15.625 7.5C15.7908 7.5 15.9497 7.56585 16.0669 7.68306C16.1842 7.80027 16.25 7.95924 16.25 8.125L16.25 18.125C16.25 18.2908 16.1842 18.4497 16.0669 18.5669C15.9497 18.6842 15.7908 18.75 15.625 18.75L4.375 18.75C4.20924 18.75 4.05027 18.6842 3.93306 18.5669C3.81585 18.4497 3.75 18.2908 3.75 18.125L3.75 8.125C3.75 7.95924 3.81585 7.80027 3.93306 7.68306C4.05027 7.56585 4.20924 7.5 4.375 7.5L6.875 7.5C7.04076 7.5 7.19973 7.43415 7.31694 7.31694C7.43415 7.19973 7.5 7.04076 7.5 6.875C7.5 6.70924 7.43415 6.55027 7.31694 6.43306C7.19973 6.31585 7.04076 6.25 6.875 6.25L4.375 6.25C3.87772 6.25 3.40081 6.44754 3.04918 6.79917C2.69754 7.15081 2.5 7.62772 2.5 8.125L2.5 18.125C2.5 18.6223 2.69754 19.0992 3.04917 19.4508C3.40081 19.8025 3.87772 20 4.375 20L15.625 20C16.1223 20 16.5992 19.8025 16.9508 19.4508C17.3025 19.0992 17.5 18.6223 17.5 18.125L17.5 8.125C17.5 7.62772 17.3025 7.15081 16.9508 6.79917C16.5992 6.44754 16.1223 6.25 15.625 6.25L13.125 6.25C12.9592 6.25 12.8003 6.31585 12.6831 6.43306C12.5658 6.55027 12.5 6.70924 12.5 6.875C12.5 7.04076 12.5658 7.19973 12.6831 7.31694C12.8003 7.43415 12.9592 7.5 13.125 7.5L15.625 7.5Z" fill="#4C6FFF"/>
<path fill-rule="evenodd" clip-rule="evenodd" d="M10.4423 0.182499C10.3843 0.124295 10.3153 0.0781165 10.2394 0.0466084C10.1634 0.0151003 10.082 -0.00111944 9.99981 -0.00111944C9.9176 -0.00111944 9.8362 0.0151003 9.76027 0.0466084C9.68434 0.0781164 9.61537 0.124295 9.55731 0.182499L5.80731 3.9325C5.68995 4.04986 5.62402 4.20903 5.62402 4.375C5.62402 4.54097 5.68995 4.70014 5.80731 4.8175C5.92467 4.93486 6.08384 5.00079 6.24981 5.00079C6.41578 5.00079 6.57496 4.93486 6.69231 4.8175L9.37481 2.13375L9.37481 13.125C9.37481 13.2908 9.44066 13.4497 9.55787 13.5669C9.67508 13.6842 9.83405 13.75 9.99981 13.75C10.1656 13.75 10.3245 13.6842 10.4418 13.5669C10.559 13.4497 10.6248 13.2908 10.6248 13.125L10.6248 2.13375L13.3073 4.8175C13.4247 4.93486 13.5838 5.00079 13.7498 5.00079C13.9158 5.00079 14.075 4.93486 14.1923 4.8175C14.3097 4.70014 14.3756 4.54097 14.3756 4.375C14.3756 4.20903 14.3097 4.04986 14.1923 3.9325L10.4423 0.182499V0.182499Z" fill="#4C6FFF"/>
</g>
<defs>
<clipPath id="clip0_3424_160993">
<rect width="20" height="20" fill="white" transform="translate(0 20) rotate(-90)"/>
</clipPath>
</defs>
</svg>
