<svg width="20" height="20" viewBox="0 0 20 20" fill="none" xmlns="http://www.w3.org/2000/svg">
<path d="M10 18.75C7.67936 18.75 5.45376 17.8281 3.81282 16.1872C2.17187 14.5462 1.25 12.3206 1.25 10C1.25 7.67936 2.17187 5.45376 3.81282 3.81282C5.45376 2.17187 7.67936 1.25 10 1.25C12.3206 1.25 14.5462 2.17187 16.1872 3.81282C17.8281 5.45376 18.75 7.67936 18.75 10C18.75 12.3206 17.8281 14.5462 16.1872 16.1872C14.5462 17.8281 12.3206 18.75 10 18.75ZM10 20C12.6522 20 15.1957 18.9464 17.0711 17.0711C18.9464 15.1957 20 12.6522 20 10C20 7.34784 18.9464 4.8043 17.0711 2.92893C15.1957 1.05357 12.6522 0 10 0C7.34784 0 4.8043 1.05357 2.92893 2.92893C1.05357 4.8043 0 7.34784 0 10C0 12.6522 1.05357 15.1957 2.92893 17.0711C4.8043 18.9464 7.34784 20 10 20Z" fill="#A0AEC0"/>
<path d="M6.01662 6.01687C6.07468 5.95866 6.14365 5.91249 6.21958 5.88098C6.29551 5.84947 6.37692 5.83325 6.45912 5.83325C6.54133 5.83325 6.62274 5.84947 6.69867 5.88098C6.7746 5.91249 6.84357 5.95866 6.90162 6.01687L10.2091 9.32562L13.5166 6.01687C13.5747 5.95876 13.6437 5.91266 13.7196 5.88121C13.7956 5.84977 13.8769 5.83358 13.9591 5.83358C14.0413 5.83358 14.1227 5.84977 14.1986 5.88121C14.2745 5.91266 14.3435 5.95876 14.4016 6.01687C14.4597 6.07498 14.5058 6.14397 14.5373 6.21989C14.5687 6.29581 14.5849 6.37719 14.5849 6.45937C14.5849 6.54155 14.5687 6.62292 14.5373 6.69885C14.5058 6.77477 14.4597 6.84376 14.4016 6.90187L11.0929 10.2094L14.4016 13.5169C14.4597 13.575 14.5058 13.644 14.5373 13.7199C14.5687 13.7958 14.5849 13.8772 14.5849 13.9594C14.5849 14.0415 14.5687 14.1229 14.5373 14.1988C14.5058 14.2748 14.4597 14.3438 14.4016 14.4019C14.3435 14.46 14.2745 14.5061 14.1986 14.5375C14.1227 14.569 14.0413 14.5852 13.9591 14.5852C13.8769 14.5852 13.7956 14.569 13.7196 14.5375C13.6437 14.5061 13.5747 14.46 13.5166 14.4019L10.2091 11.0931L6.90162 14.4019C6.84351 14.46 6.77453 14.5061 6.6986 14.5375C6.62268 14.569 6.5413 14.5852 6.45912 14.5852C6.37694 14.5852 6.29557 14.569 6.21965 14.5375C6.14372 14.5061 6.07473 14.46 6.01662 14.4019C5.95851 14.3438 5.91242 14.2748 5.88097 14.1988C5.84952 14.1229 5.83334 14.0415 5.83334 13.9594C5.83334 13.8772 5.84952 13.7958 5.88097 13.7199C5.91242 13.644 5.95851 13.575 6.01662 13.5169L9.32537 10.2094L6.01662 6.90187C5.95842 6.84381 5.91224 6.77484 5.88073 6.69891C5.84923 6.62298 5.83301 6.54158 5.83301 6.45937C5.83301 6.37716 5.84923 6.29576 5.88073 6.21983C5.91224 6.1439 5.95842 6.07493 6.01662 6.01687Z" fill="#A0AEC0"/>
</svg>
