<svg width="16" height="16" viewBox="0 0 16 16" fill="none" xmlns="http://www.w3.org/2000/svg">
<path d="M5.33672 14.2053V1.79668L12.6633 8.00097L5.33672 14.2053ZM6.21762 15.1794L13.5429 8.97507C13.6864 8.85365 13.8015 8.70391 13.8804 8.5359C13.9592 8.36789 14 8.18549 14 8.00097C14 7.81644 13.9592 7.63405 13.8804 7.46603C13.8015 7.29802 13.6864 7.14828 13.5429 7.02686L6.21896 0.82257C5.35143 0.0903707 4 0.685444 4 1.79668V14.2053C3.99978 14.4539 4.07364 14.6974 4.21273 14.9065C4.35182 15.1157 4.55024 15.2816 4.78425 15.3843C5.01825 15.4871 5.27791 15.5225 5.53212 15.4861C5.78634 15.4497 6.02434 15.3433 6.21762 15.1794Z" fill="#A0AEC0"/>
</svg>
