<svg width="19" height="18" viewBox="0 0 19 18" fill="none" xmlns="http://www.w3.org/2000/svg">
<path fill-rule="evenodd" clip-rule="evenodd" d="M17.7104 10.8008C18.2074 10.8008 18.6104 11.2037 18.6104 11.7007L18.6104 15.3005C18.6104 16.0165 18.3259 16.7032 17.8196 17.2096C17.3133 17.7159 16.6266 18.0003 15.9105 18.0003L3.31132 18.0003C2.59528 18.0003 1.90856 17.7159 1.40225 17.2096C0.895933 16.7032 0.611486 16.0165 0.611486 15.3005L0.611486 11.7007C0.611486 11.2037 1.01441 10.8008 1.51143 10.8008C2.00846 10.8008 2.41137 11.2037 2.41137 11.7007L2.41137 15.3005C2.41137 15.5392 2.50619 15.7681 2.67496 15.9369C2.84373 16.1056 3.07264 16.2004 3.31132 16.2004L15.9105 16.2004C16.1492 16.2004 16.3781 16.1056 16.5469 15.9369C16.7156 15.7681 16.8105 15.5392 16.8105 15.3005L16.8105 11.7007C16.8105 11.2037 17.2134 10.8008 17.7104 10.8008Z" fill="#1884F7"/>
<path fill-rule="evenodd" clip-rule="evenodd" d="M14.7413 6.56046C15.0927 6.91191 15.0927 7.48172 14.7413 7.83317L10.2416 12.3329C9.89013 12.6843 9.32032 12.6843 8.96887 12.3329L4.46915 7.83317C4.1177 7.48172 4.1177 6.91191 4.46915 6.56046C4.8206 6.20901 5.39041 6.20901 5.74186 6.56046L9.60522 10.4238L13.4686 6.56046C13.82 6.20901 14.3898 6.20901 14.7413 6.56046Z" fill="#1884F7"/>
<path fill-rule="evenodd" clip-rule="evenodd" d="M9.60494 -3.93378e-08C10.102 -1.76121e-08 10.5049 0.402918 10.5049 0.899943L10.5049 11.6993C10.5049 12.1963 10.102 12.5992 9.60494 12.5992C9.10791 12.5992 8.705 12.1963 8.705 11.6993L8.705 0.899943C8.705 0.402918 9.10791 -6.10634e-08 9.60494 -3.93378e-08Z" fill="#1884F7"/>
</svg>
