<svg width="18" height="17" viewBox="0 0 18 17" fill="none" xmlns="http://www.w3.org/2000/svg">
<path d="M1.04444 3.22045H9.57756C9.68878 3.43344 9.83317 3.629 10.0058 3.80045C10.2211 4.00666 10.4767 4.17024 10.7581 4.28184C11.0394 4.39345 11.341 4.45089 11.6456 4.45089C11.9501 4.45089 12.2517 4.39345 12.533 4.28184C12.8144 4.17024 13.07 4.00666 13.2853 3.80045C13.4579 3.629 13.6023 3.43344 13.7136 3.22045H16.7111C16.9881 3.22045 17.2538 3.11509 17.4496 2.92755C17.6455 2.74002 17.7556 2.48566 17.7556 2.22045C17.7556 1.95523 17.6455 1.70088 17.4496 1.51334C17.2538 1.3258 16.9881 1.22045 16.7111 1.22045H13.7136C13.5997 1.01203 13.4555 0.820127 13.2853 0.650446C13.07 0.444233 12.8144 0.280653 12.533 0.169048C12.2517 0.0574429 11.9501 0 11.6456 0C11.341 0 11.0394 0.0574429 10.7581 0.169048C10.4767 0.280653 10.2211 0.444233 10.0058 0.650446C9.83563 0.820127 9.69146 1.01203 9.57756 1.22045H1.04444C0.76744 1.22045 0.501782 1.3258 0.305911 1.51334C0.110039 1.70088 0 1.95523 0 2.22045C0 2.48566 0.110039 2.74002 0.305911 2.92755C0.501782 3.11509 0.76744 3.22045 1.04444 3.22045Z" fill="#4C6FFF"/>
<path d="M16.7111 7.36046H8.40778C8.30416 7.14569 8.16285 6.94951 7.99 6.78046C7.55337 6.36338 6.96177 6.12915 6.345 6.12915C5.72823 6.12915 5.13664 6.36338 4.7 6.78046C4.52715 6.94951 4.38584 7.14569 4.28222 7.36046H1.04444C0.76744 7.36046 0.501782 7.46581 0.305911 7.65335C0.110039 7.84089 0 8.09524 0 8.36046C0 8.62567 0.110039 8.88003 0.305911 9.06756C0.501782 9.2551 0.76744 9.36046 1.04444 9.36046H4.28222C4.38868 9.57066 4.52974 9.76312 4.7 9.93046C5.13664 10.3475 5.72823 10.5818 6.345 10.5818C6.96177 10.5818 7.55337 10.3475 7.99 9.93046C8.16026 9.76312 8.30132 9.57066 8.40778 9.36046H16.7633C17.0403 9.36046 17.306 9.2551 17.5019 9.06756C17.6977 8.88003 17.8078 8.62567 17.8078 8.36046C17.8078 8.09524 17.6977 7.84089 17.5019 7.65335C17.306 7.46581 17.0403 7.36046 16.7633 7.36046H16.7111Z" fill="#4C6FFF"/>
<path d="M16.7111 13.4105H13.7136C13.6049 13.199 13.4602 13.0064 13.2853 12.8405C13.073 12.6298 12.8181 12.4627 12.5363 12.3492C12.2544 12.2358 11.9513 12.1783 11.6456 12.1805C11.341 12.1799 11.0392 12.237 10.7578 12.3486C10.4764 12.4601 10.2208 12.6239 10.0058 12.8305C9.83317 13.0019 9.68878 13.1975 9.57756 13.4105H1.04444C0.76744 13.4105 0.501782 13.5158 0.305911 13.7034C0.110039 13.8909 0 14.1453 0 14.4105C0 14.6757 0.110039 14.93 0.305911 15.1176C0.501782 15.3051 0.76744 15.4105 1.04444 15.4105H9.57756C9.68884 15.6204 9.83328 15.8127 10.0058 15.9805C10.2211 16.1867 10.4767 16.3503 10.7581 16.4619C11.0394 16.5735 11.341 16.6309 11.6456 16.6309C11.9501 16.6309 12.2517 16.5735 12.533 16.4619C12.8144 16.3503 13.07 16.1867 13.2853 15.9805C13.4578 15.8127 13.6023 15.6204 13.7136 15.4105H16.7111C16.9881 15.4105 17.2538 15.3051 17.4496 15.1176C17.6455 14.93 17.7556 14.6757 17.7556 14.4105C17.7556 14.1453 17.6455 13.8909 17.4496 13.7034C17.2538 13.5158 16.9881 13.4105 16.7111 13.4105Z" fill="#4C6FFF"/>
</svg>
