<svg width="17" height="17" viewBox="0 0 17 17" fill="none" xmlns="http://www.w3.org/2000/svg">
<path fill-rule="evenodd" clip-rule="evenodd" d="M5.47525 2.68317C5.0799 2.7005 4.69194 2.79643 4.33398 2.96536C3.97603 3.1343 3.65525 3.37286 3.3903 3.66715C3.12536 3.96144 2.92156 4.30558 2.79078 4.67951C2.66 5.05344 2.60485 5.44969 2.62856 5.84517C2.62856 8.27917 4.87694 10.4912 8.28198 13.8392L8.61759 14.2042L8.89726 13.8962C12.3592 10.4962 14.6146 8.28317 14.6146 5.84517C14.6383 5.44969 14.5832 5.05344 14.4524 4.67951C14.3216 4.30558 14.1178 3.96144 13.8529 3.66715C13.5879 3.37286 13.2671 3.1343 12.9092 2.96536C12.5512 2.79643 12.1633 2.7005 11.7679 2.68317C11.3097 2.69333 10.8596 2.80645 10.4509 3.01415C10.0422 3.22186 9.68533 3.51884 9.40666 3.88317C9.30961 3.99658 9.1892 4.08763 9.05368 4.15005C8.91816 4.21247 8.77075 4.24479 8.62158 4.24479C8.47241 4.24479 8.325 4.21247 8.18948 4.15005C8.05396 4.08763 7.93355 3.99658 7.8365 3.88317C7.55774 3.51895 7.20085 3.22204 6.79217 3.01435C6.38349 2.80666 5.93345 2.69348 5.47525 2.68317ZM8.62158 16.6832C8.48339 16.6832 8.3467 16.6545 8.22016 16.5989C8.09362 16.5433 7.98 16.462 7.88645 16.3602L6.87162 15.2552C3.11799 11.5642 0.630882 9.11817 0.630882 5.84517C0.571957 4.89346 0.794028 3.94542 1.26944 3.11917C1.74484 2.29291 2.45257 1.62496 3.30445 1.19853C4.15633 0.772093 5.11471 0.606024 6.06019 0.721007C7.00567 0.835991 7.89645 1.22694 8.62158 1.84517C9.34671 1.22694 10.2375 0.835991 11.183 0.721007C12.1285 0.606024 13.0868 0.772093 13.9387 1.19853C14.7906 1.62496 15.4983 2.29291 15.9737 3.11917C16.4491 3.94542 16.6712 4.89346 16.6123 5.84517C16.6123 9.12317 14.1152 11.5722 10.3426 15.2772L9.35972 16.3572C9.26609 16.4599 9.1521 16.542 9.025 16.5981C8.8979 16.6542 8.7605 16.6832 8.62158 16.6832Z" fill="#FF808B"/>
</svg>
