<svg width="16" height="16" viewBox="0 0 16 16" fill="none" xmlns="http://www.w3.org/2000/svg">
<path fill-rule="evenodd" clip-rule="evenodd" d="M4.85367 1.99762C4.45832 2.01495 4.07035 2.11088 3.7124 2.27982C3.35445 2.44875 3.03367 2.68731 2.76872 2.9816C2.50378 3.2759 2.29998 3.62003 2.1692 3.99396C2.03842 4.36789 1.98327 4.76414 2.00697 5.15962C2.00697 7.59362 4.25536 9.80562 7.6604 13.1536L7.99601 13.5186L8.27568 13.2106C11.7377 9.81062 13.993 7.59762 13.993 5.15962C14.0167 4.76414 13.9616 4.36789 13.8308 3.99396C13.7 3.62003 13.4962 3.2759 13.2313 2.9816C12.9663 2.68731 12.6455 2.44875 12.2876 2.27982C11.9296 2.11088 11.5417 2.01495 11.1463 1.99762C10.6881 2.00779 10.238 2.1209 9.82932 2.32861C9.42062 2.53631 9.06375 2.83329 8.78508 3.19762C8.68803 3.31104 8.56762 3.40208 8.4321 3.4645C8.29658 3.52693 8.14917 3.55925 8 3.55925C7.85083 3.55925 7.70342 3.52693 7.5679 3.4645C7.43238 3.40208 7.31197 3.31104 7.21492 3.19762C6.93616 2.8334 6.57927 2.53649 6.17059 2.3288C5.76191 2.12111 5.31187 2.00793 4.85367 1.99762ZM8 15.9976C7.86181 15.9976 7.72512 15.9689 7.59858 15.9133C7.47204 15.8577 7.35842 15.7764 7.26486 15.6746L6.25004 14.5696C2.49641 10.8786 0.00929952 8.43262 0.00929952 5.15962C-0.0496253 4.20791 0.172446 3.25987 0.647854 2.43362C1.12326 1.60737 1.83099 0.939416 2.68287 0.512981C3.53475 0.0865463 4.49312 -0.0795232 5.4386 0.0354604C6.38408 0.150444 7.27487 0.541398 8 1.15962C8.72513 0.541398 9.61592 0.150444 10.5614 0.0354604C11.5069 -0.0795232 12.4653 0.0865463 13.3171 0.512981C14.169 0.939416 14.8767 1.60737 15.3521 2.43362C15.8276 3.25987 16.0496 4.20791 15.9907 5.15962C15.9907 8.43762 13.4936 10.8866 9.721 14.5916L8.73814 15.6716C8.64451 15.7744 8.53051 15.8564 8.40342 15.9125C8.27632 15.9687 8.13892 15.9977 8 15.9976Z" fill="#FF808B"/>
</svg>
