<svg width="27" height="26" viewBox="0 0 27 26" fill="none" xmlns="http://www.w3.org/2000/svg">
<path d="M1.3916 10.0074C1.3916 10.0074 3.95352 6.51683 6.03485 4.43407C8.11613 2.35133 10.9923 1.06299 14.1694 1.06299C20.5207 1.06299 25.6694 6.21169 25.6694 12.563C25.6694 18.9142 20.5207 24.063 14.1694 24.063C8.92653 24.063 4.50313 20.5546 3.11886 15.7574M1.3916 10.0074V4.43407M1.3916 10.0074H6.03485" stroke="white" stroke-width="2" stroke-linecap="round" stroke-linejoin="round"/>
<path d="M11.8558 16.1448H11.038V10.9334C10.8411 11.1212 10.5822 11.309 10.2611 11.4968C9.94303 11.6846 9.6568 11.8255 9.40234 11.9194V11.1288C9.85971 10.9138 10.2595 10.6532 10.6018 10.3473C10.9441 10.0414 11.1864 9.74456 11.3288 9.45679H11.8558V16.1448ZM13.9549 12.8599C13.9549 12.0723 14.0352 11.4392 14.1956 10.9607C14.3592 10.4791 14.6 10.108 14.9181 9.84753C15.2392 9.58706 15.642 9.45679 16.1266 9.45679C16.4841 9.45679 16.7976 9.52949 17.0672 9.6749C17.3367 9.81726 17.5593 10.0248 17.735 10.2973C17.9107 10.5669 18.0485 10.8971 18.1485 11.2878C18.2485 11.6755 18.2984 12.1995 18.2984 12.8599C18.2984 13.6413 18.2181 14.2729 18.0576 14.7545C17.897 15.2331 17.6563 15.6041 17.3352 15.8676C17.0172 16.1281 16.6143 16.2584 16.1266 16.2584C15.4845 16.2584 14.9802 16.0282 14.6137 15.5677C14.1745 15.0135 13.9549 14.1108 13.9549 12.8599ZM14.7954 12.8599C14.7954 13.9533 14.9226 14.6818 15.1771 15.0452C15.4345 15.4057 15.7511 15.5859 16.1266 15.5859C16.5022 15.5859 16.8172 15.4042 17.0717 15.0407C17.3291 14.6773 17.4579 13.9503 17.4579 12.8599C17.4579 11.7634 17.3291 11.0349 17.0717 10.6744C16.8172 10.314 16.4992 10.1338 16.1176 10.1338C15.742 10.1338 15.4421 10.2928 15.218 10.6109C14.9363 11.0167 14.7954 11.7664 14.7954 12.8599Z" fill="white"/>
</svg>
