<svg width="27" height="26" viewBox="0 0 27 26" fill="none" xmlns="http://www.w3.org/2000/svg">
<path d="M25.7797 10.0074C25.7797 10.0074 23.2178 6.51683 21.1365 4.43407C19.0552 2.35133 16.179 1.06299 13.002 1.06299C6.65068 1.06299 1.50195 6.21169 1.50195 12.563C1.50195 18.9142 6.65068 24.063 13.002 24.063C18.2448 24.063 22.6682 20.5546 24.0525 15.7574M25.7797 10.0074V4.43407M25.7797 10.0074H21.1365" stroke="white" stroke-width="2" stroke-linecap="round" stroke-linejoin="round"/>
<path d="M11.35 16.1448H10.5321V10.9334C10.3352 11.1212 10.0763 11.309 9.75521 11.4968C9.43717 11.6846 9.15094 11.8255 8.89648 11.9194V11.1288C9.35386 10.9138 9.75366 10.6532 10.096 10.3473C10.4383 10.0414 10.6806 9.74456 10.8229 9.45679H11.35V16.1448ZM13.449 12.8599C13.449 12.0723 13.5293 11.4392 13.6899 10.9607C13.8534 10.4791 14.0942 10.108 14.4122 9.84753C14.7333 9.58706 15.1362 9.45679 15.6208 9.45679C15.9782 9.45679 16.2917 9.52949 16.5613 9.6749C16.8308 9.81726 17.0535 10.0248 17.2292 10.2973C17.4048 10.5669 17.5427 10.8971 17.6426 11.2878C17.7426 11.6755 17.7925 12.1995 17.7925 12.8599C17.7925 13.6413 17.7123 14.2729 17.5517 14.7545C17.3913 15.2331 17.1504 15.6041 16.8294 15.8676C16.5113 16.1281 16.1085 16.2584 15.6208 16.2584C14.9787 16.2584 14.4743 16.0282 14.1078 15.5677C13.6686 15.0135 13.449 14.1108 13.449 12.8599ZM14.2896 12.8599C14.2896 13.9533 14.4168 14.6818 14.6712 15.0452C14.9287 15.4057 15.2452 15.5859 15.6208 15.5859C15.9964 15.5859 16.3114 15.4042 16.5658 15.0407C16.8233 14.6773 16.952 13.9503 16.952 12.8599C16.952 11.7634 16.8233 11.0349 16.5658 10.6744C16.3114 10.314 15.9933 10.1338 15.6117 10.1338C15.2361 10.1338 14.9362 10.2928 14.7121 10.6109C14.4304 11.0167 14.2896 11.7664 14.2896 12.8599Z" fill="white"/>
</svg>
