<svg width="18" height="18" viewBox="0 0 18 18" fill="none" xmlns="http://www.w3.org/2000/svg">
<mask id="mask0_1743_139595" style="mask-type:alpha" maskUnits="userSpaceOnUse" x="0" y="0" width="18" height="18">
<path fill-rule="evenodd" clip-rule="evenodd" d="M7.3125 13.5C10.7298 13.5 13.5 10.7298 13.5 7.3125C13.5 3.89524 10.7298 1.125 7.3125 1.125C3.89524 1.125 1.125 3.89524 1.125 7.3125C1.125 10.7298 3.89524 13.5 7.3125 13.5ZM14.625 7.3125C14.625 11.3511 11.3511 14.625 7.3125 14.625C3.27392 14.625 0 11.3511 0 7.3125C0 3.27392 3.27392 0 7.3125 0C11.3511 0 14.625 3.27392 14.625 7.3125Z" fill="black"/>
<path d="M11.6369 13.2099C11.6701 13.2549 11.707 13.298 11.7477 13.3387L16.0795 17.6705C16.5188 18.1098 17.2312 18.1098 17.6705 17.6705C18.1098 17.2312 18.1098 16.5188 17.6705 16.0795L13.3387 11.7477C13.298 11.707 13.2549 11.6701 13.2099 11.6369C12.7686 12.2377 12.2377 12.7686 11.6369 13.2099Z" fill="black"/>
</mask>
<g mask="url(#mask0_1743_139595)">
<rect y="-1" width="20" height="20" fill="#A0AEC0"/>
</g>
</svg>
