<svg width="17" height="18" viewBox="0 0 17 18" fill="none" xmlns="http://www.w3.org/2000/svg">
<path d="M13.9437 12.7229C13.2681 12.7229 12.6637 12.994 12.2015 13.4187L5.86368 9.66867C5.90813 9.46084 5.94369 9.25301 5.94369 9.03614C5.94369 8.81928 5.90813 8.61145 5.86368 8.40361L12.1304 4.68976C12.6104 5.14157 13.2415 5.42169 13.9437 5.42169C15.4192 5.42169 16.6104 4.21084 16.6104 2.71084C16.6104 1.21084 15.4192 0 13.9437 0C12.4681 0 11.277 1.21084 11.277 2.71084C11.277 2.92771 11.3126 3.13554 11.357 3.34337L5.09035 7.05723C4.61035 6.60542 3.97924 6.3253 3.27702 6.3253C1.80146 6.3253 0.610352 7.53614 0.610352 9.03614C0.610352 10.5361 1.80146 11.747 3.27702 11.747C3.97924 11.747 4.61035 11.4669 5.09035 11.0151L11.4192 14.7741C11.3748 14.9639 11.3481 15.1627 11.3481 15.3614C11.3481 16.8163 12.5126 18 13.9437 18C15.3748 18 16.5392 16.8163 16.5392 15.3614C16.5392 13.9066 15.3748 12.7229 13.9437 12.7229Z" fill="#807E81"/>
</svg>
