<svg width="8" height="12" viewBox="0 0 8 12" fill="none" xmlns="http://www.w3.org/2000/svg">
<g style="mix-blend-mode:luminosity">
<path d="M0.295898 4.13672C0.178711 4.25391 0.120117 4.39844 0.120117 4.56641C0.120117 4.91406 0.397461 5.19531 0.741211 5.19531C0.913086 5.19531 1.07324 5.125 1.20215 4.99609L3.70215 2.42188L6.19824 4.99609C6.32324 5.12891 6.4873 5.19531 6.65527 5.19531C6.99902 5.19531 7.27637 4.91406 7.27637 4.56641C7.27637 4.39453 7.21777 4.25391 7.10059 4.13672L4.20996 1.17969C4.05762 1.02344 3.89355 0.949219 3.69824 0.949219C3.50684 0.949219 3.34668 1.01953 3.18652 1.17969L0.295898 4.13672ZM3.69824 11.4258C3.89355 11.4258 4.05762 11.3516 4.20996 11.1953L7.10059 8.23828C7.21777 8.12109 7.27637 7.98047 7.27637 7.80859C7.27637 7.46094 6.99902 7.17969 6.65527 7.17969C6.4873 7.17969 6.32715 7.25 6.19824 7.37891L3.70215 9.95703L1.20215 7.37891C1.07324 7.25 0.913086 7.17969 0.741211 7.17969C0.397461 7.17969 0.120117 7.46094 0.120117 7.80859C0.120117 7.97656 0.178711 8.11719 0.295898 8.23828L3.18652 11.1953C3.34668 11.3555 3.50684 11.4258 3.69824 11.4258Z" fill="#797979"/>
</g>
</svg>
