<svg width="13" height="19" viewBox="0 0 13 19" fill="none" xmlns="http://www.w3.org/2000/svg">
<path fill-rule="evenodd" clip-rule="evenodd" d="M10.3425 0.0805192C10.5801 0.219359 10.691 0.504443 10.6102 0.76838L8.48188 7.71875H12.4091C12.6448 7.71875 12.858 7.85955 12.9515 8.077C13.045 8.29445 13.0009 8.54694 12.8394 8.71944L3.38485 18.8132C3.1965 19.0143 2.89503 19.0583 2.65746 18.9195C2.41989 18.7806 2.30895 18.4956 2.38978 18.2316L4.51812 11.2812H0.590921C0.355176 11.2812 0.141986 11.1404 0.0484813 10.923C-0.0450231 10.7055 -0.000949519 10.4531 0.160622 10.2806L9.61515 0.186833C9.8035 -0.0142587 10.105 -0.0583204 10.3425 0.0805192ZM1.95853 10.0937H5.31818C5.50571 10.0937 5.6821 10.1832 5.7935 10.3348C5.90491 10.4863 5.93811 10.682 5.88296 10.8621L4.26723 16.1385L11.0415 8.90625H7.68182C7.49429 8.90625 7.3179 8.81682 7.2065 8.66525C7.09509 8.51368 7.06189 8.31798 7.11704 8.13789L8.73277 2.86152L1.95853 10.0937Z" fill="#A0AEC0"/>
</svg>
