<?xml version="1.0" encoding="utf-8"?>
<!-- Generator: Adobe Illustrator 26.0.0, SVG Export Plug-In . SVG Version: 6.00 Build 0)  -->
<svg version="1.1" id="Layer_1" xmlns="http://www.w3.org/2000/svg" xmlns:xlink="http://www.w3.org/1999/xlink" x="0px" y="0px"
	 viewBox="0 0 22 23" style="enable-background:new 0 0 22 23;" xml:space="preserve">
<style type="text/css">
	.st0{fill:#FFFFFF;}
</style>
<path class="st0" d="M11,22.5c-6.1,0-11-4.9-11-11s4.9-11,11-11c0.6,0,1,0.4,1,1s-0.4,1-1,1c-5,0-9,4-9,9s4,9,9,9s9-4,9-9
	c0-0.6,0.4-1,1-1s1,0.4,1,1C22,17.6,17.1,22.5,11,22.5z M11,17.5c-3.3,0-6-2.7-6-6s2.7-6,6-6c0.6,0,1,0.4,1,1s-0.4,1-1,1
	c-2.2,0-4,1.8-4,4s1.8,4,4,4s4-1.8,4-4c0-0.6,0.4-1,1-1s1,0.4,1,1C17,14.8,14.3,17.5,11,17.5z M11,12.5c-0.3,0-0.5-0.1-0.7-0.3
	c-0.4-0.4-0.4-1,0-1.4L14,7.1V4.5c0-0.3,0.1-0.5,0.3-0.7l3-3c0.2-0.2,0.5-0.3,0.9-0.3c0.3,0.1,0.6,0.3,0.7,0.5l0.9,1.7l1.7,0.9
	C21.7,3.7,21.9,4,22,4.3S21.9,5,21.7,5.2l-3,3c-0.2,0.2-0.4,0.3-0.7,0.3h-2.6l-3.7,3.7C11.5,12.4,11.3,12.5,11,12.5z M16,6.5h1.6
	l1.7-1.7l-0.8-0.4c-0.2-0.1-0.4-0.3-0.4-0.4l-0.4-0.8L16,4.9V6.5z"/>
</svg>
