<svg width="12" height="16" viewBox="0 0 12 16" fill="none" xmlns="http://www.w3.org/2000/svg">
<path d="M6 8.9726C5.77166 8.96993 5.54799 9.03727 5.35908 9.16557C5.17018 9.29387 5.02511 9.47696 4.94341 9.6902C4.86171 9.90344 4.8473 10.1366 4.90211 10.3583C4.95693 10.5799 5.07834 10.7795 5.25 10.9301V11.9726C5.25 12.1715 5.32902 12.3623 5.46967 12.5029C5.61032 12.6436 5.80109 12.7226 6 12.7226C6.19891 12.7226 6.38968 12.6436 6.53033 12.5029C6.67098 12.3623 6.75 12.1715 6.75 11.9726V10.9301C6.92166 10.7795 7.04307 10.5799 7.09789 10.3583C7.1527 10.1366 7.13829 9.90344 7.05659 9.6902C6.97489 9.47696 6.82982 9.29387 6.64092 9.16557C6.45201 9.03727 6.22834 8.96993 6 8.9726ZM9.75 5.9726H3.75V4.4726C3.74891 4.02724 3.88001 3.59157 4.12669 3.22077C4.37338 2.84998 4.72456 2.56073 5.13576 2.38967C5.54696 2.2186 5.99967 2.17342 6.43657 2.25983C6.87346 2.34625 7.27489 2.56037 7.59 2.8751C7.87196 3.16315 8.07364 3.51997 8.175 3.9101C8.19962 4.00563 8.24282 4.09538 8.30213 4.17423C8.36144 4.25307 8.4357 4.31946 8.52066 4.3696C8.60563 4.41974 8.69964 4.45266 8.79733 4.46647C8.89501 4.48028 8.99446 4.47472 9.09 4.4501C9.18554 4.42547 9.27529 4.38227 9.35413 4.32297C9.43297 4.26366 9.49936 4.1894 9.5495 4.10443C9.59965 4.01947 9.63256 3.92546 9.64638 3.82777C9.66019 3.73008 9.65462 3.63063 9.63 3.5351C9.45914 2.8862 9.12025 2.2938 8.6475 1.8176C8.12263 1.29437 7.4545 0.938398 6.72747 0.794628C6.00043 0.650859 5.2471 0.725739 4.56259 1.00981C3.87809 1.29389 3.2931 1.77442 2.88151 2.39073C2.46991 3.00703 2.25016 3.73148 2.25 4.4726V5.9726C1.65326 5.9726 1.08097 6.20965 0.65901 6.63161C0.237053 7.05356 0 7.62586 0 8.2226V13.4726C0 14.0693 0.237053 14.6416 0.65901 15.0636C1.08097 15.4855 1.65326 15.7226 2.25 15.7226H9.75C10.3467 15.7226 10.919 15.4855 11.341 15.0636C11.7629 14.6416 12 14.0693 12 13.4726V8.2226C12 7.62586 11.7629 7.05356 11.341 6.63161C10.919 6.20965 10.3467 5.9726 9.75 5.9726ZM10.5 13.4726C10.5 13.6715 10.421 13.8623 10.2803 14.0029C10.1397 14.1436 9.94891 14.2226 9.75 14.2226H2.25C2.05109 14.2226 1.86032 14.1436 1.71967 14.0029C1.57902 13.8623 1.5 13.6715 1.5 13.4726V8.2226C1.5 8.02368 1.57902 7.83292 1.71967 7.69227C1.86032 7.55161 2.05109 7.4726 2.25 7.4726H9.75C9.94891 7.4726 10.1397 7.55161 10.2803 7.69227C10.421 7.83292 10.5 8.02368 10.5 8.2226V13.4726Z" fill="#C7C8D0"/>
</svg>
