<svg width="24" height="24" viewBox="0 0 24 24" fill="none" xmlns="http://www.w3.org/2000/svg">
<circle cx="12" cy="12" r="11.5" fill="black" stroke="white"/>
<path d="M5.3376 19C5.3376 19 4 19 4 17.8333C4 16.6667 5.3376 13.1667 12.0256 13.1667C18.7136 13.1667 20.0512 16.6667 20.0512 17.8333C20.0512 19 18.7136 19 18.7136 19H5.3376ZM12.0256 12C13.0898 12 14.1105 11.6313 14.8631 10.9749C15.6156 10.3185 16.0384 9.42826 16.0384 8.5C16.0384 7.57174 15.6156 6.6815 14.8631 6.02513C14.1105 5.36875 13.0898 5 12.0256 5C10.9613 5 9.94065 5.36875 9.18811 6.02513C8.43557 6.6815 8.01279 7.57174 8.01279 8.5C8.01279 9.42826 8.43557 10.3185 9.18811 10.9749C9.94065 11.6313 10.9613 12 12.0256 12Z" fill="white"/>
</svg>
