<svg xmlns="http://www.w3.org/2000/svg" width="18.333" height="18.333" viewBox="0 0 18.333 18.333">
  <g id="videos" transform="translate(-0.833 -0.834)">
    <path id="Path_1" data-name="Path 1" d="M15.667,19.167H6a2.5,2.5,0,0,1-2.5-2.5.5.5,0,1,1,1,0,1.5,1.5,0,0,0,1.5,1.5h9.667a2.5,2.5,0,0,0,2.5-2.5V6a1.5,1.5,0,0,0-1.5-1.5.5.5,0,1,1,0-1,2.5,2.5,0,0,1,2.5,2.5v9.667A3.5,3.5,0,0,1,15.667,19.167Z" fill="#a0aec0"/>
    <path id="Path_2" data-name="Path 2" d="M4.333.834h9.333a3.5,3.5,0,0,1,3.5,3.5v9.333a3.5,3.5,0,0,1-3.5,3.5H4.333a3.5,3.5,0,0,1-3.5-3.5V4.334A3.5,3.5,0,0,1,4.333.834Zm9.333,15.333a2.5,2.5,0,0,0,2.5-2.5V4.334a2.5,2.5,0,0,0-2.5-2.5H4.333a2.5,2.5,0,0,0-2.5,2.5v9.333a2.5,2.5,0,0,0,2.5,2.5Z" fill="#a0aec0"/>
    <path id="Path_3" data-name="Path 3" d="M7.5,6.194a1,1,0,0,1,.5.132l3.159,1.805a1,1,0,0,1,0,1.736L8,11.674a1,1,0,0,1-1.5-.868V7.2A1,1,0,0,1,7.5,6.194Zm0,4.611L10.659,9,7.5,7.2Z" fill="#a0aec0"/>
  </g>
</svg>
