<svg width="32" height="24" viewBox="0 0 32 24" fill="none" xmlns="http://www.w3.org/2000/svg">
<path d="M27.2614 1.6892C29.3158 4.54508 30.5258 8.04912 30.5258 11.8358C30.5258 15.6224 29.3158 19.1264 27.2614 21.9823M21.4596 6.03773C22.606 7.68123 23.2783 9.67998 23.2783 11.8358C23.2783 13.9915 22.606 15.9903 21.4596 17.6338M12.6016 2.21927L8.01296 6.80796C7.76226 7.05865 7.63692 7.184 7.49064 7.27364C7.36095 7.35311 7.21956 7.41168 7.07165 7.44719C6.90483 7.48724 6.72756 7.48724 6.37303 7.48724H3.85486C3.04306 7.48724 2.63716 7.48724 2.32709 7.64522C2.05435 7.78419 1.8326 8.00594 1.69363 8.27868C1.53564 8.58875 1.53564 8.99465 1.53564 9.80645V13.8651C1.53564 14.6769 1.53564 15.0828 1.69363 15.3928C1.8326 15.6656 2.05435 15.8873 2.32709 16.0263C2.63716 16.1843 3.04306 16.1843 3.85486 16.1843H6.37303C6.72756 16.1843 6.90483 16.1843 7.07165 16.2243C7.21956 16.2598 7.36095 16.3184 7.49064 16.3979C7.63692 16.4875 7.76226 16.6129 8.01296 16.8636L12.6016 21.4523C13.2226 22.0732 13.5331 22.3837 13.7996 22.4046C14.0309 22.4228 14.2569 22.3292 14.4076 22.1528C14.5812 21.9495 14.5812 21.5104 14.5812 20.6323V3.03923C14.5812 2.1611 14.5812 1.72203 14.4076 1.51872C14.2569 1.3423 14.0309 1.24868 13.7996 1.26689C13.5331 1.28786 13.2226 1.59833 12.6016 2.21927Z" stroke="white" stroke-width="2" stroke-linecap="round" stroke-linejoin="round"/>
</svg>
