<?xml version="1.0" encoding="utf-8"?>
<!-- Generator: Adobe Illustrator 26.0.0, SVG Export Plug-In . SVG Version: 6.00 Build 0)  -->
<svg version="1.1" id="Layer_1" xmlns="http://www.w3.org/2000/svg" xmlns:xlink="http://www.w3.org/1999/xlink" x="0px" y="0px"
	 viewBox="0 0 32 24" style="enable-background:new 0 0 32 24;" xml:space="preserve">
<style type="text/css">
	.st0{fill:#FFFFFF;}
</style>
<path class="st0" d="M14.2,2c0.4,0.2,0.6,0.6,0.6,1v18c0,0.6-0.5,1.1-1.1,1.1c-0.3,0-0.5-0.1-0.7-0.2l-5.3-4.3H2.5
	c-0.6,0-1.1-0.5-1.1-1.1v-9c0-0.6,0.5-1.1,1.1-1.1h5.2L13,2.1C13.4,1.8,13.8,1.8,14.2,2z M12.6,5.3l-3.8,3C8.6,8.5,8.4,8.6,8.1,8.6
	H3.6v6.8h4.5c0.3,0,0.5,0.1,0.7,0.2l3.8,3V5.3z M30.3,6.7c0.4,0.4,0.4,1.2,0,1.6c0,0,0,0,0,0L26.6,12l3.7,3.7c0.4,0.4,0.4,1.2,0,1.6
	c-0.4,0.4-1.2,0.4-1.6,0L25,13.6l-3.7,3.7c-0.4,0.4-1.2,0.4-1.6,0c-0.4-0.4-0.4-1.2,0-1.6l3.7-3.7l-3.7-3.7c-0.4-0.4-0.4-1.2,0-1.6
	c0.4-0.4,1.2-0.4,1.6,0l0,0l3.7,3.7l3.7-3.7C29.1,6.3,29.9,6.3,30.3,6.7C30.3,6.7,30.3,6.7,30.3,6.7z"/>
</svg>
